G04 #@! TF.GenerationSoftware,KiCad,Pcbnew,9.0.4*
G04 #@! TF.CreationDate,2025-11-10T08:14:31+01:00*
G04 #@! TF.ProjectId,CodecModule,436f6465-634d-46f6-9475-6c652e6b6963,rev?*
G04 #@! TF.SameCoordinates,Original*
G04 #@! TF.FileFunction,Soldermask,Top*
G04 #@! TF.FilePolarity,Negative*
%FSLAX46Y46*%
G04 Gerber Fmt 4.6, Leading zero omitted, Abs format (unit mm)*
G04 Created by KiCad (PCBNEW 9.0.4) date 2025-11-10 08:14:31*
%MOMM*%
%LPD*%
G01*
G04 APERTURE LIST*
G04 Aperture macros list*
%AMRoundRect*
0 Rectangle with rounded corners*
0 $1 Rounding radius*
0 $2 $3 $4 $5 $6 $7 $8 $9 X,Y pos of 4 corners*
0 Add a 4 corners polygon primitive as box body*
4,1,4,$2,$3,$4,$5,$6,$7,$8,$9,$2,$3,0*
0 Add four circle primitives for the rounded corners*
1,1,$1+$1,$2,$3*
1,1,$1+$1,$4,$5*
1,1,$1+$1,$6,$7*
1,1,$1+$1,$8,$9*
0 Add four rect primitives between the rounded corners*
20,1,$1+$1,$2,$3,$4,$5,0*
20,1,$1+$1,$4,$5,$6,$7,0*
20,1,$1+$1,$6,$7,$8,$9,0*
20,1,$1+$1,$8,$9,$2,$3,0*%
G04 Aperture macros list end*
%ADD10RoundRect,0.262500X0.312500X0.262500X-0.312500X0.262500X-0.312500X-0.262500X0.312500X-0.262500X0*%
%ADD11RoundRect,0.265625X-0.584375X1.084375X-0.584375X-1.084375X0.584375X-1.084375X0.584375X1.084375X0*%
%ADD12RoundRect,0.050000X-0.725000X-0.225000X0.725000X-0.225000X0.725000X0.225000X-0.725000X0.225000X0*%
%ADD13RoundRect,0.262500X-0.312500X-0.262500X0.312500X-0.262500X0.312500X0.262500X-0.312500X0.262500X0*%
%ADD14RoundRect,0.050000X-0.850000X-0.850000X0.850000X-0.850000X0.850000X0.850000X-0.850000X0.850000X0*%
%ADD15RoundRect,0.450000X-0.450000X-0.450000X0.450000X-0.450000X0.450000X0.450000X-0.450000X0.450000X0*%
%ADD16O,1.800000X1.800000*%
%ADD17RoundRect,0.050000X0.850000X0.850000X-0.850000X0.850000X-0.850000X-0.850000X0.850000X-0.850000X0*%
%ADD18RoundRect,0.450000X0.450000X0.450000X-0.450000X0.450000X-0.450000X-0.450000X0.450000X-0.450000X0*%
G04 APERTURE END LIST*
D10*
X31595000Y-36195000D03*
X29845000Y-36195000D03*
X31595000Y-38100000D03*
X29845000Y-38100000D03*
D11*
X35560000Y-43920000D03*
X35560000Y-47520000D03*
D12*
X35209000Y-34348000D03*
X35209000Y-34998000D03*
X35209000Y-35648000D03*
X35209000Y-36298000D03*
X35209000Y-36948000D03*
X35209000Y-37598000D03*
X35209000Y-38248000D03*
X35209000Y-38898000D03*
X35209000Y-39548000D03*
X35209000Y-40198000D03*
X41109000Y-40198000D03*
X41109000Y-39548000D03*
X41109000Y-38898000D03*
X41109000Y-38248000D03*
X41109000Y-37598000D03*
X41109000Y-36948000D03*
X41109000Y-36298000D03*
X41109000Y-35648000D03*
X41109000Y-34998000D03*
X41109000Y-34348000D03*
D11*
X40640000Y-44152000D03*
X40640000Y-47752000D03*
D10*
X31595000Y-34290000D03*
X29845000Y-34290000D03*
D11*
X30480000Y-42650000D03*
X30480000Y-46250000D03*
D10*
X30353000Y-48895000D03*
X28603000Y-48895000D03*
X46813000Y-42109000D03*
X45063000Y-42109000D03*
X46813000Y-43887000D03*
X45063000Y-43887000D03*
X46813000Y-45665000D03*
X45063000Y-45665000D03*
X46813000Y-47443000D03*
X45063000Y-47443000D03*
D13*
X45063000Y-49221000D03*
X46813000Y-49221000D03*
D10*
X46824000Y-38644000D03*
X45074000Y-38644000D03*
X46824000Y-36866000D03*
X45074000Y-36866000D03*
X46824000Y-35088000D03*
X45074000Y-35088000D03*
X46824000Y-33310000D03*
X45074000Y-33310000D03*
D11*
X40673332Y-27424000D03*
X40673332Y-31024000D03*
X45808000Y-27424000D03*
X45808000Y-31024000D03*
X30404000Y-27424000D03*
X30404000Y-31024000D03*
X35538666Y-27424000D03*
X35538666Y-31024000D03*
D14*
X25600000Y-27940000D03*
D15*
X26670000Y-27940000D03*
D14*
X25600000Y-30480000D03*
D16*
X26670000Y-30480000D03*
D14*
X25600000Y-33020000D03*
D16*
X26670000Y-33020000D03*
D14*
X25600000Y-35560000D03*
D16*
X26670000Y-35560000D03*
D14*
X25600000Y-38100000D03*
D16*
X26670000Y-38100000D03*
D14*
X25600000Y-40640000D03*
D16*
X26670000Y-40640000D03*
D14*
X25600000Y-43180000D03*
D16*
X26670000Y-43180000D03*
D14*
X25600000Y-45720000D03*
D16*
X26670000Y-45720000D03*
D14*
X25600000Y-48260000D03*
D16*
X26670000Y-48260000D03*
D17*
X50600000Y-48260000D03*
D18*
X49530000Y-48260000D03*
D17*
X50600000Y-45720000D03*
D16*
X49530000Y-45720000D03*
D17*
X50600000Y-43180000D03*
D16*
X49530000Y-43180000D03*
D17*
X50600000Y-40640000D03*
D16*
X49530000Y-40640000D03*
D17*
X50600000Y-38100000D03*
D16*
X49530000Y-38100000D03*
D17*
X50600000Y-35560000D03*
D16*
X49530000Y-35560000D03*
D17*
X50600000Y-33020000D03*
D16*
X49530000Y-33020000D03*
D17*
X50600000Y-30480000D03*
D16*
X49530000Y-30480000D03*
D17*
X50600000Y-27940000D03*
D16*
X49530000Y-27940000D03*
D13*
X45074000Y-40386000D03*
X46824000Y-40386000D03*
M02*
