G04 #@! TF.GenerationSoftware,KiCad,Pcbnew,9.0.4*
G04 #@! TF.CreationDate,2025-11-10T08:14:31+01:00*
G04 #@! TF.ProjectId,CodecModule,436f6465-634d-46f6-9475-6c652e6b6963,rev?*
G04 #@! TF.SameCoordinates,Original*
G04 #@! TF.FileFunction,Legend,Top*
G04 #@! TF.FilePolarity,Positive*
%FSLAX46Y46*%
G04 Gerber Fmt 4.6, Leading zero omitted, Abs format (unit mm)*
G04 Created by KiCad (PCBNEW 9.0.4) date 2025-11-10 08:14:31*
%MOMM*%
%LPD*%
G01*
G04 APERTURE LIST*
%ADD10C,0.200000*%
%ADD11C,0.150000*%
%ADD12C,0.120000*%
G04 APERTURE END LIST*
D10*
X34163000Y-33147000D02*
G75*
G02*
X33909000Y-33147000I-127000J0D01*
G01*
X33909000Y-33147000D02*
G75*
G02*
X34163000Y-33147000I127000J0D01*
G01*
D11*
X28187667Y-36557295D02*
X27921000Y-36176342D01*
X27730524Y-36557295D02*
X27730524Y-35757295D01*
X27730524Y-35757295D02*
X28035286Y-35757295D01*
X28035286Y-35757295D02*
X28111476Y-35795390D01*
X28111476Y-35795390D02*
X28149571Y-35833485D01*
X28149571Y-35833485D02*
X28187667Y-35909676D01*
X28187667Y-35909676D02*
X28187667Y-36023961D01*
X28187667Y-36023961D02*
X28149571Y-36100152D01*
X28149571Y-36100152D02*
X28111476Y-36138247D01*
X28111476Y-36138247D02*
X28035286Y-36176342D01*
X28035286Y-36176342D02*
X27730524Y-36176342D01*
X28454333Y-35757295D02*
X28949571Y-35757295D01*
X28949571Y-35757295D02*
X28682905Y-36062057D01*
X28682905Y-36062057D02*
X28797190Y-36062057D01*
X28797190Y-36062057D02*
X28873381Y-36100152D01*
X28873381Y-36100152D02*
X28911476Y-36138247D01*
X28911476Y-36138247D02*
X28949571Y-36214438D01*
X28949571Y-36214438D02*
X28949571Y-36404914D01*
X28949571Y-36404914D02*
X28911476Y-36481104D01*
X28911476Y-36481104D02*
X28873381Y-36519200D01*
X28873381Y-36519200D02*
X28797190Y-36557295D01*
X28797190Y-36557295D02*
X28568619Y-36557295D01*
X28568619Y-36557295D02*
X28492428Y-36519200D01*
X28492428Y-36519200D02*
X28454333Y-36481104D01*
X28187667Y-38386104D02*
X28149571Y-38424200D01*
X28149571Y-38424200D02*
X28035286Y-38462295D01*
X28035286Y-38462295D02*
X27959095Y-38462295D01*
X27959095Y-38462295D02*
X27844809Y-38424200D01*
X27844809Y-38424200D02*
X27768619Y-38348009D01*
X27768619Y-38348009D02*
X27730524Y-38271819D01*
X27730524Y-38271819D02*
X27692428Y-38119438D01*
X27692428Y-38119438D02*
X27692428Y-38005152D01*
X27692428Y-38005152D02*
X27730524Y-37852771D01*
X27730524Y-37852771D02*
X27768619Y-37776580D01*
X27768619Y-37776580D02*
X27844809Y-37700390D01*
X27844809Y-37700390D02*
X27959095Y-37662295D01*
X27959095Y-37662295D02*
X28035286Y-37662295D01*
X28035286Y-37662295D02*
X28149571Y-37700390D01*
X28149571Y-37700390D02*
X28187667Y-37738485D01*
X28492428Y-37738485D02*
X28530524Y-37700390D01*
X28530524Y-37700390D02*
X28606714Y-37662295D01*
X28606714Y-37662295D02*
X28797190Y-37662295D01*
X28797190Y-37662295D02*
X28873381Y-37700390D01*
X28873381Y-37700390D02*
X28911476Y-37738485D01*
X28911476Y-37738485D02*
X28949571Y-37814676D01*
X28949571Y-37814676D02*
X28949571Y-37890866D01*
X28949571Y-37890866D02*
X28911476Y-38005152D01*
X28911476Y-38005152D02*
X28454333Y-38462295D01*
X28454333Y-38462295D02*
X28949571Y-38462295D01*
X34395580Y-47156666D02*
X34443200Y-47204285D01*
X34443200Y-47204285D02*
X34490819Y-47347142D01*
X34490819Y-47347142D02*
X34490819Y-47442380D01*
X34490819Y-47442380D02*
X34443200Y-47585237D01*
X34443200Y-47585237D02*
X34347961Y-47680475D01*
X34347961Y-47680475D02*
X34252723Y-47728094D01*
X34252723Y-47728094D02*
X34062247Y-47775713D01*
X34062247Y-47775713D02*
X33919390Y-47775713D01*
X33919390Y-47775713D02*
X33728914Y-47728094D01*
X33728914Y-47728094D02*
X33633676Y-47680475D01*
X33633676Y-47680475D02*
X33538438Y-47585237D01*
X33538438Y-47585237D02*
X33490819Y-47442380D01*
X33490819Y-47442380D02*
X33490819Y-47347142D01*
X33490819Y-47347142D02*
X33538438Y-47204285D01*
X33538438Y-47204285D02*
X33586057Y-47156666D01*
X34490819Y-46204285D02*
X34490819Y-46775713D01*
X34490819Y-46489999D02*
X33490819Y-46489999D01*
X33490819Y-46489999D02*
X33633676Y-46585237D01*
X33633676Y-46585237D02*
X33728914Y-46680475D01*
X33728914Y-46680475D02*
X33776533Y-46775713D01*
X37397095Y-32427819D02*
X37397095Y-33237342D01*
X37397095Y-33237342D02*
X37444714Y-33332580D01*
X37444714Y-33332580D02*
X37492333Y-33380200D01*
X37492333Y-33380200D02*
X37587571Y-33427819D01*
X37587571Y-33427819D02*
X37778047Y-33427819D01*
X37778047Y-33427819D02*
X37873285Y-33380200D01*
X37873285Y-33380200D02*
X37920904Y-33332580D01*
X37920904Y-33332580D02*
X37968523Y-33237342D01*
X37968523Y-33237342D02*
X37968523Y-32427819D01*
X38968523Y-33427819D02*
X38397095Y-33427819D01*
X38682809Y-33427819D02*
X38682809Y-32427819D01*
X38682809Y-32427819D02*
X38587571Y-32570676D01*
X38587571Y-32570676D02*
X38492333Y-32665914D01*
X38492333Y-32665914D02*
X38397095Y-32713533D01*
X39602580Y-47378857D02*
X39650200Y-47426476D01*
X39650200Y-47426476D02*
X39697819Y-47569333D01*
X39697819Y-47569333D02*
X39697819Y-47664571D01*
X39697819Y-47664571D02*
X39650200Y-47807428D01*
X39650200Y-47807428D02*
X39554961Y-47902666D01*
X39554961Y-47902666D02*
X39459723Y-47950285D01*
X39459723Y-47950285D02*
X39269247Y-47997904D01*
X39269247Y-47997904D02*
X39126390Y-47997904D01*
X39126390Y-47997904D02*
X38935914Y-47950285D01*
X38935914Y-47950285D02*
X38840676Y-47902666D01*
X38840676Y-47902666D02*
X38745438Y-47807428D01*
X38745438Y-47807428D02*
X38697819Y-47664571D01*
X38697819Y-47664571D02*
X38697819Y-47569333D01*
X38697819Y-47569333D02*
X38745438Y-47426476D01*
X38745438Y-47426476D02*
X38793057Y-47378857D01*
X39697819Y-46426476D02*
X39697819Y-46997904D01*
X39697819Y-46712190D02*
X38697819Y-46712190D01*
X38697819Y-46712190D02*
X38840676Y-46807428D01*
X38840676Y-46807428D02*
X38935914Y-46902666D01*
X38935914Y-46902666D02*
X38983533Y-46997904D01*
X38697819Y-45807428D02*
X38697819Y-45712190D01*
X38697819Y-45712190D02*
X38745438Y-45616952D01*
X38745438Y-45616952D02*
X38793057Y-45569333D01*
X38793057Y-45569333D02*
X38888295Y-45521714D01*
X38888295Y-45521714D02*
X39078771Y-45474095D01*
X39078771Y-45474095D02*
X39316866Y-45474095D01*
X39316866Y-45474095D02*
X39507342Y-45521714D01*
X39507342Y-45521714D02*
X39602580Y-45569333D01*
X39602580Y-45569333D02*
X39650200Y-45616952D01*
X39650200Y-45616952D02*
X39697819Y-45712190D01*
X39697819Y-45712190D02*
X39697819Y-45807428D01*
X39697819Y-45807428D02*
X39650200Y-45902666D01*
X39650200Y-45902666D02*
X39602580Y-45950285D01*
X39602580Y-45950285D02*
X39507342Y-45997904D01*
X39507342Y-45997904D02*
X39316866Y-46045523D01*
X39316866Y-46045523D02*
X39078771Y-46045523D01*
X39078771Y-46045523D02*
X38888295Y-45997904D01*
X38888295Y-45997904D02*
X38793057Y-45950285D01*
X38793057Y-45950285D02*
X38745438Y-45902666D01*
X38745438Y-45902666D02*
X38697819Y-45807428D01*
X28187667Y-34703104D02*
X28149571Y-34741200D01*
X28149571Y-34741200D02*
X28035286Y-34779295D01*
X28035286Y-34779295D02*
X27959095Y-34779295D01*
X27959095Y-34779295D02*
X27844809Y-34741200D01*
X27844809Y-34741200D02*
X27768619Y-34665009D01*
X27768619Y-34665009D02*
X27730524Y-34588819D01*
X27730524Y-34588819D02*
X27692428Y-34436438D01*
X27692428Y-34436438D02*
X27692428Y-34322152D01*
X27692428Y-34322152D02*
X27730524Y-34169771D01*
X27730524Y-34169771D02*
X27768619Y-34093580D01*
X27768619Y-34093580D02*
X27844809Y-34017390D01*
X27844809Y-34017390D02*
X27959095Y-33979295D01*
X27959095Y-33979295D02*
X28035286Y-33979295D01*
X28035286Y-33979295D02*
X28149571Y-34017390D01*
X28149571Y-34017390D02*
X28187667Y-34055485D01*
X28873381Y-33979295D02*
X28721000Y-33979295D01*
X28721000Y-33979295D02*
X28644809Y-34017390D01*
X28644809Y-34017390D02*
X28606714Y-34055485D01*
X28606714Y-34055485D02*
X28530524Y-34169771D01*
X28530524Y-34169771D02*
X28492428Y-34322152D01*
X28492428Y-34322152D02*
X28492428Y-34626914D01*
X28492428Y-34626914D02*
X28530524Y-34703104D01*
X28530524Y-34703104D02*
X28568619Y-34741200D01*
X28568619Y-34741200D02*
X28644809Y-34779295D01*
X28644809Y-34779295D02*
X28797190Y-34779295D01*
X28797190Y-34779295D02*
X28873381Y-34741200D01*
X28873381Y-34741200D02*
X28911476Y-34703104D01*
X28911476Y-34703104D02*
X28949571Y-34626914D01*
X28949571Y-34626914D02*
X28949571Y-34436438D01*
X28949571Y-34436438D02*
X28911476Y-34360247D01*
X28911476Y-34360247D02*
X28873381Y-34322152D01*
X28873381Y-34322152D02*
X28797190Y-34284057D01*
X28797190Y-34284057D02*
X28644809Y-34284057D01*
X28644809Y-34284057D02*
X28568619Y-34322152D01*
X28568619Y-34322152D02*
X28530524Y-34360247D01*
X28530524Y-34360247D02*
X28492428Y-34436438D01*
X29315580Y-45886666D02*
X29363200Y-45934285D01*
X29363200Y-45934285D02*
X29410819Y-46077142D01*
X29410819Y-46077142D02*
X29410819Y-46172380D01*
X29410819Y-46172380D02*
X29363200Y-46315237D01*
X29363200Y-46315237D02*
X29267961Y-46410475D01*
X29267961Y-46410475D02*
X29172723Y-46458094D01*
X29172723Y-46458094D02*
X28982247Y-46505713D01*
X28982247Y-46505713D02*
X28839390Y-46505713D01*
X28839390Y-46505713D02*
X28648914Y-46458094D01*
X28648914Y-46458094D02*
X28553676Y-46410475D01*
X28553676Y-46410475D02*
X28458438Y-46315237D01*
X28458438Y-46315237D02*
X28410819Y-46172380D01*
X28410819Y-46172380D02*
X28410819Y-46077142D01*
X28410819Y-46077142D02*
X28458438Y-45934285D01*
X28458438Y-45934285D02*
X28506057Y-45886666D01*
X28410819Y-44981904D02*
X28410819Y-45458094D01*
X28410819Y-45458094D02*
X28887009Y-45505713D01*
X28887009Y-45505713D02*
X28839390Y-45458094D01*
X28839390Y-45458094D02*
X28791771Y-45362856D01*
X28791771Y-45362856D02*
X28791771Y-45124761D01*
X28791771Y-45124761D02*
X28839390Y-45029523D01*
X28839390Y-45029523D02*
X28887009Y-44981904D01*
X28887009Y-44981904D02*
X28982247Y-44934285D01*
X28982247Y-44934285D02*
X29220342Y-44934285D01*
X29220342Y-44934285D02*
X29315580Y-44981904D01*
X29315580Y-44981904D02*
X29363200Y-45029523D01*
X29363200Y-45029523D02*
X29410819Y-45124761D01*
X29410819Y-45124761D02*
X29410819Y-45362856D01*
X29410819Y-45362856D02*
X29363200Y-45458094D01*
X29363200Y-45458094D02*
X29315580Y-45505713D01*
X31997714Y-49511295D02*
X31731047Y-49130342D01*
X31540571Y-49511295D02*
X31540571Y-48711295D01*
X31540571Y-48711295D02*
X31845333Y-48711295D01*
X31845333Y-48711295D02*
X31921523Y-48749390D01*
X31921523Y-48749390D02*
X31959618Y-48787485D01*
X31959618Y-48787485D02*
X31997714Y-48863676D01*
X31997714Y-48863676D02*
X31997714Y-48977961D01*
X31997714Y-48977961D02*
X31959618Y-49054152D01*
X31959618Y-49054152D02*
X31921523Y-49092247D01*
X31921523Y-49092247D02*
X31845333Y-49130342D01*
X31845333Y-49130342D02*
X31540571Y-49130342D01*
X32759618Y-49511295D02*
X32302475Y-49511295D01*
X32531047Y-49511295D02*
X32531047Y-48711295D01*
X32531047Y-48711295D02*
X32454856Y-48825580D01*
X32454856Y-48825580D02*
X32378666Y-48901771D01*
X32378666Y-48901771D02*
X32302475Y-48939866D01*
X33521523Y-49511295D02*
X33064380Y-49511295D01*
X33292952Y-49511295D02*
X33292952Y-48711295D01*
X33292952Y-48711295D02*
X33216761Y-48825580D01*
X33216761Y-48825580D02*
X33140571Y-48901771D01*
X33140571Y-48901771D02*
X33064380Y-48939866D01*
X43377667Y-42471295D02*
X43111000Y-42090342D01*
X42920524Y-42471295D02*
X42920524Y-41671295D01*
X42920524Y-41671295D02*
X43225286Y-41671295D01*
X43225286Y-41671295D02*
X43301476Y-41709390D01*
X43301476Y-41709390D02*
X43339571Y-41747485D01*
X43339571Y-41747485D02*
X43377667Y-41823676D01*
X43377667Y-41823676D02*
X43377667Y-41937961D01*
X43377667Y-41937961D02*
X43339571Y-42014152D01*
X43339571Y-42014152D02*
X43301476Y-42052247D01*
X43301476Y-42052247D02*
X43225286Y-42090342D01*
X43225286Y-42090342D02*
X42920524Y-42090342D01*
X44101476Y-41671295D02*
X43720524Y-41671295D01*
X43720524Y-41671295D02*
X43682428Y-42052247D01*
X43682428Y-42052247D02*
X43720524Y-42014152D01*
X43720524Y-42014152D02*
X43796714Y-41976057D01*
X43796714Y-41976057D02*
X43987190Y-41976057D01*
X43987190Y-41976057D02*
X44063381Y-42014152D01*
X44063381Y-42014152D02*
X44101476Y-42052247D01*
X44101476Y-42052247D02*
X44139571Y-42128438D01*
X44139571Y-42128438D02*
X44139571Y-42318914D01*
X44139571Y-42318914D02*
X44101476Y-42395104D01*
X44101476Y-42395104D02*
X44063381Y-42433200D01*
X44063381Y-42433200D02*
X43987190Y-42471295D01*
X43987190Y-42471295D02*
X43796714Y-42471295D01*
X43796714Y-42471295D02*
X43720524Y-42433200D01*
X43720524Y-42433200D02*
X43682428Y-42395104D01*
X43427667Y-44304295D02*
X43161000Y-43923342D01*
X42970524Y-44304295D02*
X42970524Y-43504295D01*
X42970524Y-43504295D02*
X43275286Y-43504295D01*
X43275286Y-43504295D02*
X43351476Y-43542390D01*
X43351476Y-43542390D02*
X43389571Y-43580485D01*
X43389571Y-43580485D02*
X43427667Y-43656676D01*
X43427667Y-43656676D02*
X43427667Y-43770961D01*
X43427667Y-43770961D02*
X43389571Y-43847152D01*
X43389571Y-43847152D02*
X43351476Y-43885247D01*
X43351476Y-43885247D02*
X43275286Y-43923342D01*
X43275286Y-43923342D02*
X42970524Y-43923342D01*
X44113381Y-43504295D02*
X43961000Y-43504295D01*
X43961000Y-43504295D02*
X43884809Y-43542390D01*
X43884809Y-43542390D02*
X43846714Y-43580485D01*
X43846714Y-43580485D02*
X43770524Y-43694771D01*
X43770524Y-43694771D02*
X43732428Y-43847152D01*
X43732428Y-43847152D02*
X43732428Y-44151914D01*
X43732428Y-44151914D02*
X43770524Y-44228104D01*
X43770524Y-44228104D02*
X43808619Y-44266200D01*
X43808619Y-44266200D02*
X43884809Y-44304295D01*
X43884809Y-44304295D02*
X44037190Y-44304295D01*
X44037190Y-44304295D02*
X44113381Y-44266200D01*
X44113381Y-44266200D02*
X44151476Y-44228104D01*
X44151476Y-44228104D02*
X44189571Y-44151914D01*
X44189571Y-44151914D02*
X44189571Y-43961438D01*
X44189571Y-43961438D02*
X44151476Y-43885247D01*
X44151476Y-43885247D02*
X44113381Y-43847152D01*
X44113381Y-43847152D02*
X44037190Y-43809057D01*
X44037190Y-43809057D02*
X43884809Y-43809057D01*
X43884809Y-43809057D02*
X43808619Y-43847152D01*
X43808619Y-43847152D02*
X43770524Y-43885247D01*
X43770524Y-43885247D02*
X43732428Y-43961438D01*
X43554667Y-46082295D02*
X43288000Y-45701342D01*
X43097524Y-46082295D02*
X43097524Y-45282295D01*
X43097524Y-45282295D02*
X43402286Y-45282295D01*
X43402286Y-45282295D02*
X43478476Y-45320390D01*
X43478476Y-45320390D02*
X43516571Y-45358485D01*
X43516571Y-45358485D02*
X43554667Y-45434676D01*
X43554667Y-45434676D02*
X43554667Y-45548961D01*
X43554667Y-45548961D02*
X43516571Y-45625152D01*
X43516571Y-45625152D02*
X43478476Y-45663247D01*
X43478476Y-45663247D02*
X43402286Y-45701342D01*
X43402286Y-45701342D02*
X43097524Y-45701342D01*
X43821333Y-45282295D02*
X44354667Y-45282295D01*
X44354667Y-45282295D02*
X44011809Y-46082295D01*
X43554667Y-47860295D02*
X43288000Y-47479342D01*
X43097524Y-47860295D02*
X43097524Y-47060295D01*
X43097524Y-47060295D02*
X43402286Y-47060295D01*
X43402286Y-47060295D02*
X43478476Y-47098390D01*
X43478476Y-47098390D02*
X43516571Y-47136485D01*
X43516571Y-47136485D02*
X43554667Y-47212676D01*
X43554667Y-47212676D02*
X43554667Y-47326961D01*
X43554667Y-47326961D02*
X43516571Y-47403152D01*
X43516571Y-47403152D02*
X43478476Y-47441247D01*
X43478476Y-47441247D02*
X43402286Y-47479342D01*
X43402286Y-47479342D02*
X43097524Y-47479342D01*
X44011809Y-47403152D02*
X43935619Y-47365057D01*
X43935619Y-47365057D02*
X43897524Y-47326961D01*
X43897524Y-47326961D02*
X43859428Y-47250771D01*
X43859428Y-47250771D02*
X43859428Y-47212676D01*
X43859428Y-47212676D02*
X43897524Y-47136485D01*
X43897524Y-47136485D02*
X43935619Y-47098390D01*
X43935619Y-47098390D02*
X44011809Y-47060295D01*
X44011809Y-47060295D02*
X44164190Y-47060295D01*
X44164190Y-47060295D02*
X44240381Y-47098390D01*
X44240381Y-47098390D02*
X44278476Y-47136485D01*
X44278476Y-47136485D02*
X44316571Y-47212676D01*
X44316571Y-47212676D02*
X44316571Y-47250771D01*
X44316571Y-47250771D02*
X44278476Y-47326961D01*
X44278476Y-47326961D02*
X44240381Y-47365057D01*
X44240381Y-47365057D02*
X44164190Y-47403152D01*
X44164190Y-47403152D02*
X44011809Y-47403152D01*
X44011809Y-47403152D02*
X43935619Y-47441247D01*
X43935619Y-47441247D02*
X43897524Y-47479342D01*
X43897524Y-47479342D02*
X43859428Y-47555533D01*
X43859428Y-47555533D02*
X43859428Y-47707914D01*
X43859428Y-47707914D02*
X43897524Y-47784104D01*
X43897524Y-47784104D02*
X43935619Y-47822200D01*
X43935619Y-47822200D02*
X44011809Y-47860295D01*
X44011809Y-47860295D02*
X44164190Y-47860295D01*
X44164190Y-47860295D02*
X44240381Y-47822200D01*
X44240381Y-47822200D02*
X44278476Y-47784104D01*
X44278476Y-47784104D02*
X44316571Y-47707914D01*
X44316571Y-47707914D02*
X44316571Y-47555533D01*
X44316571Y-47555533D02*
X44278476Y-47479342D01*
X44278476Y-47479342D02*
X44240381Y-47441247D01*
X44240381Y-47441247D02*
X44164190Y-47403152D01*
X43554667Y-49638295D02*
X43288000Y-49257342D01*
X43097524Y-49638295D02*
X43097524Y-48838295D01*
X43097524Y-48838295D02*
X43402286Y-48838295D01*
X43402286Y-48838295D02*
X43478476Y-48876390D01*
X43478476Y-48876390D02*
X43516571Y-48914485D01*
X43516571Y-48914485D02*
X43554667Y-48990676D01*
X43554667Y-48990676D02*
X43554667Y-49104961D01*
X43554667Y-49104961D02*
X43516571Y-49181152D01*
X43516571Y-49181152D02*
X43478476Y-49219247D01*
X43478476Y-49219247D02*
X43402286Y-49257342D01*
X43402286Y-49257342D02*
X43097524Y-49257342D01*
X44240381Y-49104961D02*
X44240381Y-49638295D01*
X44049905Y-48800200D02*
X43859428Y-49371628D01*
X43859428Y-49371628D02*
X44354667Y-49371628D01*
X43427667Y-38970295D02*
X43161000Y-38589342D01*
X42970524Y-38970295D02*
X42970524Y-38170295D01*
X42970524Y-38170295D02*
X43275286Y-38170295D01*
X43275286Y-38170295D02*
X43351476Y-38208390D01*
X43351476Y-38208390D02*
X43389571Y-38246485D01*
X43389571Y-38246485D02*
X43427667Y-38322676D01*
X43427667Y-38322676D02*
X43427667Y-38436961D01*
X43427667Y-38436961D02*
X43389571Y-38513152D01*
X43389571Y-38513152D02*
X43351476Y-38551247D01*
X43351476Y-38551247D02*
X43275286Y-38589342D01*
X43275286Y-38589342D02*
X42970524Y-38589342D01*
X43808619Y-38970295D02*
X43961000Y-38970295D01*
X43961000Y-38970295D02*
X44037190Y-38932200D01*
X44037190Y-38932200D02*
X44075286Y-38894104D01*
X44075286Y-38894104D02*
X44151476Y-38779819D01*
X44151476Y-38779819D02*
X44189571Y-38627438D01*
X44189571Y-38627438D02*
X44189571Y-38322676D01*
X44189571Y-38322676D02*
X44151476Y-38246485D01*
X44151476Y-38246485D02*
X44113381Y-38208390D01*
X44113381Y-38208390D02*
X44037190Y-38170295D01*
X44037190Y-38170295D02*
X43884809Y-38170295D01*
X43884809Y-38170295D02*
X43808619Y-38208390D01*
X43808619Y-38208390D02*
X43770524Y-38246485D01*
X43770524Y-38246485D02*
X43732428Y-38322676D01*
X43732428Y-38322676D02*
X43732428Y-38513152D01*
X43732428Y-38513152D02*
X43770524Y-38589342D01*
X43770524Y-38589342D02*
X43808619Y-38627438D01*
X43808619Y-38627438D02*
X43884809Y-38665533D01*
X43884809Y-38665533D02*
X44037190Y-38665533D01*
X44037190Y-38665533D02*
X44113381Y-38627438D01*
X44113381Y-38627438D02*
X44151476Y-38589342D01*
X44151476Y-38589342D02*
X44189571Y-38513152D01*
X42753714Y-37228295D02*
X42487047Y-36847342D01*
X42296571Y-37228295D02*
X42296571Y-36428295D01*
X42296571Y-36428295D02*
X42601333Y-36428295D01*
X42601333Y-36428295D02*
X42677523Y-36466390D01*
X42677523Y-36466390D02*
X42715618Y-36504485D01*
X42715618Y-36504485D02*
X42753714Y-36580676D01*
X42753714Y-36580676D02*
X42753714Y-36694961D01*
X42753714Y-36694961D02*
X42715618Y-36771152D01*
X42715618Y-36771152D02*
X42677523Y-36809247D01*
X42677523Y-36809247D02*
X42601333Y-36847342D01*
X42601333Y-36847342D02*
X42296571Y-36847342D01*
X43515618Y-37228295D02*
X43058475Y-37228295D01*
X43287047Y-37228295D02*
X43287047Y-36428295D01*
X43287047Y-36428295D02*
X43210856Y-36542580D01*
X43210856Y-36542580D02*
X43134666Y-36618771D01*
X43134666Y-36618771D02*
X43058475Y-36656866D01*
X43820380Y-36504485D02*
X43858476Y-36466390D01*
X43858476Y-36466390D02*
X43934666Y-36428295D01*
X43934666Y-36428295D02*
X44125142Y-36428295D01*
X44125142Y-36428295D02*
X44201333Y-36466390D01*
X44201333Y-36466390D02*
X44239428Y-36504485D01*
X44239428Y-36504485D02*
X44277523Y-36580676D01*
X44277523Y-36580676D02*
X44277523Y-36656866D01*
X44277523Y-36656866D02*
X44239428Y-36771152D01*
X44239428Y-36771152D02*
X43782285Y-37228295D01*
X43782285Y-37228295D02*
X44277523Y-37228295D01*
X42753714Y-35450295D02*
X42487047Y-35069342D01*
X42296571Y-35450295D02*
X42296571Y-34650295D01*
X42296571Y-34650295D02*
X42601333Y-34650295D01*
X42601333Y-34650295D02*
X42677523Y-34688390D01*
X42677523Y-34688390D02*
X42715618Y-34726485D01*
X42715618Y-34726485D02*
X42753714Y-34802676D01*
X42753714Y-34802676D02*
X42753714Y-34916961D01*
X42753714Y-34916961D02*
X42715618Y-34993152D01*
X42715618Y-34993152D02*
X42677523Y-35031247D01*
X42677523Y-35031247D02*
X42601333Y-35069342D01*
X42601333Y-35069342D02*
X42296571Y-35069342D01*
X43515618Y-35450295D02*
X43058475Y-35450295D01*
X43287047Y-35450295D02*
X43287047Y-34650295D01*
X43287047Y-34650295D02*
X43210856Y-34764580D01*
X43210856Y-34764580D02*
X43134666Y-34840771D01*
X43134666Y-34840771D02*
X43058475Y-34878866D01*
X43782285Y-34650295D02*
X44277523Y-34650295D01*
X44277523Y-34650295D02*
X44010857Y-34955057D01*
X44010857Y-34955057D02*
X44125142Y-34955057D01*
X44125142Y-34955057D02*
X44201333Y-34993152D01*
X44201333Y-34993152D02*
X44239428Y-35031247D01*
X44239428Y-35031247D02*
X44277523Y-35107438D01*
X44277523Y-35107438D02*
X44277523Y-35297914D01*
X44277523Y-35297914D02*
X44239428Y-35374104D01*
X44239428Y-35374104D02*
X44201333Y-35412200D01*
X44201333Y-35412200D02*
X44125142Y-35450295D01*
X44125142Y-35450295D02*
X43896571Y-35450295D01*
X43896571Y-35450295D02*
X43820380Y-35412200D01*
X43820380Y-35412200D02*
X43782285Y-35374104D01*
X42753714Y-33672295D02*
X42487047Y-33291342D01*
X42296571Y-33672295D02*
X42296571Y-32872295D01*
X42296571Y-32872295D02*
X42601333Y-32872295D01*
X42601333Y-32872295D02*
X42677523Y-32910390D01*
X42677523Y-32910390D02*
X42715618Y-32948485D01*
X42715618Y-32948485D02*
X42753714Y-33024676D01*
X42753714Y-33024676D02*
X42753714Y-33138961D01*
X42753714Y-33138961D02*
X42715618Y-33215152D01*
X42715618Y-33215152D02*
X42677523Y-33253247D01*
X42677523Y-33253247D02*
X42601333Y-33291342D01*
X42601333Y-33291342D02*
X42296571Y-33291342D01*
X43515618Y-33672295D02*
X43058475Y-33672295D01*
X43287047Y-33672295D02*
X43287047Y-32872295D01*
X43287047Y-32872295D02*
X43210856Y-32986580D01*
X43210856Y-32986580D02*
X43134666Y-33062771D01*
X43134666Y-33062771D02*
X43058475Y-33100866D01*
X44010857Y-32872295D02*
X44087047Y-32872295D01*
X44087047Y-32872295D02*
X44163238Y-32910390D01*
X44163238Y-32910390D02*
X44201333Y-32948485D01*
X44201333Y-32948485D02*
X44239428Y-33024676D01*
X44239428Y-33024676D02*
X44277523Y-33177057D01*
X44277523Y-33177057D02*
X44277523Y-33367533D01*
X44277523Y-33367533D02*
X44239428Y-33519914D01*
X44239428Y-33519914D02*
X44201333Y-33596104D01*
X44201333Y-33596104D02*
X44163238Y-33634200D01*
X44163238Y-33634200D02*
X44087047Y-33672295D01*
X44087047Y-33672295D02*
X44010857Y-33672295D01*
X44010857Y-33672295D02*
X43934666Y-33634200D01*
X43934666Y-33634200D02*
X43896571Y-33596104D01*
X43896571Y-33596104D02*
X43858476Y-33519914D01*
X43858476Y-33519914D02*
X43820380Y-33367533D01*
X43820380Y-33367533D02*
X43820380Y-33177057D01*
X43820380Y-33177057D02*
X43858476Y-33024676D01*
X43858476Y-33024676D02*
X43896571Y-32948485D01*
X43896571Y-32948485D02*
X43934666Y-32910390D01*
X43934666Y-32910390D02*
X44010857Y-32872295D01*
X43572912Y-27126666D02*
X43620532Y-27174285D01*
X43620532Y-27174285D02*
X43668151Y-27317142D01*
X43668151Y-27317142D02*
X43668151Y-27412380D01*
X43668151Y-27412380D02*
X43620532Y-27555237D01*
X43620532Y-27555237D02*
X43525293Y-27650475D01*
X43525293Y-27650475D02*
X43430055Y-27698094D01*
X43430055Y-27698094D02*
X43239579Y-27745713D01*
X43239579Y-27745713D02*
X43096722Y-27745713D01*
X43096722Y-27745713D02*
X42906246Y-27698094D01*
X42906246Y-27698094D02*
X42811008Y-27650475D01*
X42811008Y-27650475D02*
X42715770Y-27555237D01*
X42715770Y-27555237D02*
X42668151Y-27412380D01*
X42668151Y-27412380D02*
X42668151Y-27317142D01*
X42668151Y-27317142D02*
X42715770Y-27174285D01*
X42715770Y-27174285D02*
X42763389Y-27126666D01*
X42668151Y-26793332D02*
X42668151Y-26126666D01*
X42668151Y-26126666D02*
X43668151Y-26555237D01*
X48707580Y-27126666D02*
X48755200Y-27174285D01*
X48755200Y-27174285D02*
X48802819Y-27317142D01*
X48802819Y-27317142D02*
X48802819Y-27412380D01*
X48802819Y-27412380D02*
X48755200Y-27555237D01*
X48755200Y-27555237D02*
X48659961Y-27650475D01*
X48659961Y-27650475D02*
X48564723Y-27698094D01*
X48564723Y-27698094D02*
X48374247Y-27745713D01*
X48374247Y-27745713D02*
X48231390Y-27745713D01*
X48231390Y-27745713D02*
X48040914Y-27698094D01*
X48040914Y-27698094D02*
X47945676Y-27650475D01*
X47945676Y-27650475D02*
X47850438Y-27555237D01*
X47850438Y-27555237D02*
X47802819Y-27412380D01*
X47802819Y-27412380D02*
X47802819Y-27317142D01*
X47802819Y-27317142D02*
X47850438Y-27174285D01*
X47850438Y-27174285D02*
X47898057Y-27126666D01*
X48231390Y-26555237D02*
X48183771Y-26650475D01*
X48183771Y-26650475D02*
X48136152Y-26698094D01*
X48136152Y-26698094D02*
X48040914Y-26745713D01*
X48040914Y-26745713D02*
X47993295Y-26745713D01*
X47993295Y-26745713D02*
X47898057Y-26698094D01*
X47898057Y-26698094D02*
X47850438Y-26650475D01*
X47850438Y-26650475D02*
X47802819Y-26555237D01*
X47802819Y-26555237D02*
X47802819Y-26364761D01*
X47802819Y-26364761D02*
X47850438Y-26269523D01*
X47850438Y-26269523D02*
X47898057Y-26221904D01*
X47898057Y-26221904D02*
X47993295Y-26174285D01*
X47993295Y-26174285D02*
X48040914Y-26174285D01*
X48040914Y-26174285D02*
X48136152Y-26221904D01*
X48136152Y-26221904D02*
X48183771Y-26269523D01*
X48183771Y-26269523D02*
X48231390Y-26364761D01*
X48231390Y-26364761D02*
X48231390Y-26555237D01*
X48231390Y-26555237D02*
X48279009Y-26650475D01*
X48279009Y-26650475D02*
X48326628Y-26698094D01*
X48326628Y-26698094D02*
X48421866Y-26745713D01*
X48421866Y-26745713D02*
X48612342Y-26745713D01*
X48612342Y-26745713D02*
X48707580Y-26698094D01*
X48707580Y-26698094D02*
X48755200Y-26650475D01*
X48755200Y-26650475D02*
X48802819Y-26555237D01*
X48802819Y-26555237D02*
X48802819Y-26364761D01*
X48802819Y-26364761D02*
X48755200Y-26269523D01*
X48755200Y-26269523D02*
X48707580Y-26221904D01*
X48707580Y-26221904D02*
X48612342Y-26174285D01*
X48612342Y-26174285D02*
X48421866Y-26174285D01*
X48421866Y-26174285D02*
X48326628Y-26221904D01*
X48326628Y-26221904D02*
X48279009Y-26269523D01*
X48279009Y-26269523D02*
X48231390Y-26364761D01*
X33303580Y-27126666D02*
X33351200Y-27174285D01*
X33351200Y-27174285D02*
X33398819Y-27317142D01*
X33398819Y-27317142D02*
X33398819Y-27412380D01*
X33398819Y-27412380D02*
X33351200Y-27555237D01*
X33351200Y-27555237D02*
X33255961Y-27650475D01*
X33255961Y-27650475D02*
X33160723Y-27698094D01*
X33160723Y-27698094D02*
X32970247Y-27745713D01*
X32970247Y-27745713D02*
X32827390Y-27745713D01*
X32827390Y-27745713D02*
X32636914Y-27698094D01*
X32636914Y-27698094D02*
X32541676Y-27650475D01*
X32541676Y-27650475D02*
X32446438Y-27555237D01*
X32446438Y-27555237D02*
X32398819Y-27412380D01*
X32398819Y-27412380D02*
X32398819Y-27317142D01*
X32398819Y-27317142D02*
X32446438Y-27174285D01*
X32446438Y-27174285D02*
X32494057Y-27126666D01*
X32732152Y-26269523D02*
X33398819Y-26269523D01*
X32351200Y-26507618D02*
X33065485Y-26745713D01*
X33065485Y-26745713D02*
X33065485Y-26126666D01*
X38692246Y-27126666D02*
X38739866Y-27174285D01*
X38739866Y-27174285D02*
X38787485Y-27317142D01*
X38787485Y-27317142D02*
X38787485Y-27412380D01*
X38787485Y-27412380D02*
X38739866Y-27555237D01*
X38739866Y-27555237D02*
X38644627Y-27650475D01*
X38644627Y-27650475D02*
X38549389Y-27698094D01*
X38549389Y-27698094D02*
X38358913Y-27745713D01*
X38358913Y-27745713D02*
X38216056Y-27745713D01*
X38216056Y-27745713D02*
X38025580Y-27698094D01*
X38025580Y-27698094D02*
X37930342Y-27650475D01*
X37930342Y-27650475D02*
X37835104Y-27555237D01*
X37835104Y-27555237D02*
X37787485Y-27412380D01*
X37787485Y-27412380D02*
X37787485Y-27317142D01*
X37787485Y-27317142D02*
X37835104Y-27174285D01*
X37835104Y-27174285D02*
X37882723Y-27126666D01*
X37787485Y-26793332D02*
X37787485Y-26174285D01*
X37787485Y-26174285D02*
X38168437Y-26507618D01*
X38168437Y-26507618D02*
X38168437Y-26364761D01*
X38168437Y-26364761D02*
X38216056Y-26269523D01*
X38216056Y-26269523D02*
X38263675Y-26221904D01*
X38263675Y-26221904D02*
X38358913Y-26174285D01*
X38358913Y-26174285D02*
X38597008Y-26174285D01*
X38597008Y-26174285D02*
X38692246Y-26221904D01*
X38692246Y-26221904D02*
X38739866Y-26269523D01*
X38739866Y-26269523D02*
X38787485Y-26364761D01*
X38787485Y-26364761D02*
X38787485Y-26650475D01*
X38787485Y-26650475D02*
X38739866Y-26745713D01*
X38739866Y-26745713D02*
X38692246Y-26793332D01*
X43602667Y-40636104D02*
X43564571Y-40674200D01*
X43564571Y-40674200D02*
X43450286Y-40712295D01*
X43450286Y-40712295D02*
X43374095Y-40712295D01*
X43374095Y-40712295D02*
X43259809Y-40674200D01*
X43259809Y-40674200D02*
X43183619Y-40598009D01*
X43183619Y-40598009D02*
X43145524Y-40521819D01*
X43145524Y-40521819D02*
X43107428Y-40369438D01*
X43107428Y-40369438D02*
X43107428Y-40255152D01*
X43107428Y-40255152D02*
X43145524Y-40102771D01*
X43145524Y-40102771D02*
X43183619Y-40026580D01*
X43183619Y-40026580D02*
X43259809Y-39950390D01*
X43259809Y-39950390D02*
X43374095Y-39912295D01*
X43374095Y-39912295D02*
X43450286Y-39912295D01*
X43450286Y-39912295D02*
X43564571Y-39950390D01*
X43564571Y-39950390D02*
X43602667Y-39988485D01*
X43983619Y-40712295D02*
X44136000Y-40712295D01*
X44136000Y-40712295D02*
X44212190Y-40674200D01*
X44212190Y-40674200D02*
X44250286Y-40636104D01*
X44250286Y-40636104D02*
X44326476Y-40521819D01*
X44326476Y-40521819D02*
X44364571Y-40369438D01*
X44364571Y-40369438D02*
X44364571Y-40064676D01*
X44364571Y-40064676D02*
X44326476Y-39988485D01*
X44326476Y-39988485D02*
X44288381Y-39950390D01*
X44288381Y-39950390D02*
X44212190Y-39912295D01*
X44212190Y-39912295D02*
X44059809Y-39912295D01*
X44059809Y-39912295D02*
X43983619Y-39950390D01*
X43983619Y-39950390D02*
X43945524Y-39988485D01*
X43945524Y-39988485D02*
X43907428Y-40064676D01*
X43907428Y-40064676D02*
X43907428Y-40255152D01*
X43907428Y-40255152D02*
X43945524Y-40331342D01*
X43945524Y-40331342D02*
X43983619Y-40369438D01*
X43983619Y-40369438D02*
X44059809Y-40407533D01*
X44059809Y-40407533D02*
X44212190Y-40407533D01*
X44212190Y-40407533D02*
X44288381Y-40369438D01*
X44288381Y-40369438D02*
X44326476Y-40331342D01*
X44326476Y-40331342D02*
X44364571Y-40255152D01*
D12*
X30891267Y-35685000D02*
X30548733Y-35685000D01*
X30891267Y-36705000D02*
X30548733Y-36705000D01*
X30891267Y-37590000D02*
X30548733Y-37590000D01*
X30891267Y-38610000D02*
X30548733Y-38610000D01*
X33300000Y-44524437D02*
X33300000Y-47980000D01*
X33300000Y-47980000D02*
X34500000Y-47980000D01*
X34364437Y-43460000D02*
X33300000Y-44524437D01*
X34364437Y-43460000D02*
X34500000Y-43460000D01*
X36755563Y-43460000D02*
X36620000Y-43460000D01*
X36755563Y-43460000D02*
X37820000Y-44524437D01*
X37120000Y-42720000D02*
X37120000Y-43220000D01*
X37370000Y-42970000D02*
X36870000Y-42970000D01*
X37820000Y-44524437D02*
X37820000Y-47980000D01*
X37820000Y-47980000D02*
X36620000Y-47980000D01*
D11*
X34409000Y-33823000D02*
X40384000Y-33823000D01*
X35934000Y-40723000D02*
X40384000Y-40723000D01*
D12*
X38380000Y-44756437D02*
X38380000Y-48212000D01*
X38380000Y-48212000D02*
X39580000Y-48212000D01*
X39444437Y-43692000D02*
X38380000Y-44756437D01*
X39444437Y-43692000D02*
X39580000Y-43692000D01*
X41835563Y-43692000D02*
X41700000Y-43692000D01*
X41835563Y-43692000D02*
X42900000Y-44756437D01*
X42200000Y-42952000D02*
X42200000Y-43452000D01*
X42450000Y-43202000D02*
X41950000Y-43202000D01*
X42900000Y-44756437D02*
X42900000Y-48212000D01*
X42900000Y-48212000D02*
X41700000Y-48212000D01*
X30891267Y-33780000D02*
X30548733Y-33780000D01*
X30891267Y-34800000D02*
X30548733Y-34800000D01*
X28220000Y-43254437D02*
X28220000Y-46710000D01*
X28220000Y-46710000D02*
X29420000Y-46710000D01*
X29284437Y-42190000D02*
X28220000Y-43254437D01*
X29284437Y-42190000D02*
X29420000Y-42190000D01*
X31675563Y-42190000D02*
X31540000Y-42190000D01*
X31675563Y-42190000D02*
X32740000Y-43254437D01*
X32040000Y-41450000D02*
X32040000Y-41950000D01*
X32290000Y-41700000D02*
X31790000Y-41700000D01*
X32740000Y-43254437D02*
X32740000Y-46710000D01*
X32740000Y-46710000D02*
X31540000Y-46710000D01*
X29649267Y-48385000D02*
X29306733Y-48385000D01*
X29649267Y-49405000D02*
X29306733Y-49405000D01*
X46109267Y-41599000D02*
X45766733Y-41599000D01*
X46109267Y-42619000D02*
X45766733Y-42619000D01*
X46109267Y-43377000D02*
X45766733Y-43377000D01*
X46109267Y-44397000D02*
X45766733Y-44397000D01*
X46109267Y-45155000D02*
X45766733Y-45155000D01*
X46109267Y-46175000D02*
X45766733Y-46175000D01*
X46109267Y-46933000D02*
X45766733Y-46933000D01*
X46109267Y-47953000D02*
X45766733Y-47953000D01*
X45766733Y-48711000D02*
X46109267Y-48711000D01*
X45766733Y-49731000D02*
X46109267Y-49731000D01*
X46120267Y-38134000D02*
X45777733Y-38134000D01*
X46120267Y-39154000D02*
X45777733Y-39154000D01*
X46120267Y-36356000D02*
X45777733Y-36356000D01*
X46120267Y-37376000D02*
X45777733Y-37376000D01*
X46120267Y-34578000D02*
X45777733Y-34578000D01*
X46120267Y-35598000D02*
X45777733Y-35598000D01*
X46120267Y-32800000D02*
X45777733Y-32800000D01*
X46120267Y-33820000D02*
X45777733Y-33820000D01*
X38413332Y-28028437D02*
X38413332Y-31484000D01*
X38413332Y-31484000D02*
X39613332Y-31484000D01*
X39477769Y-26964000D02*
X38413332Y-28028437D01*
X39477769Y-26964000D02*
X39613332Y-26964000D01*
X41868895Y-26964000D02*
X41733332Y-26964000D01*
X41868895Y-26964000D02*
X42933332Y-28028437D01*
X42233332Y-26224000D02*
X42233332Y-26724000D01*
X42483332Y-26474000D02*
X41983332Y-26474000D01*
X42933332Y-28028437D02*
X42933332Y-31484000D01*
X42933332Y-31484000D02*
X41733332Y-31484000D01*
X43548000Y-28028437D02*
X43548000Y-31484000D01*
X43548000Y-31484000D02*
X44748000Y-31484000D01*
X44612437Y-26964000D02*
X43548000Y-28028437D01*
X44612437Y-26964000D02*
X44748000Y-26964000D01*
X47003563Y-26964000D02*
X46868000Y-26964000D01*
X47003563Y-26964000D02*
X48068000Y-28028437D01*
X47368000Y-26224000D02*
X47368000Y-26724000D01*
X47618000Y-26474000D02*
X47118000Y-26474000D01*
X48068000Y-28028437D02*
X48068000Y-31484000D01*
X48068000Y-31484000D02*
X46868000Y-31484000D01*
X28144000Y-28028437D02*
X28144000Y-31484000D01*
X28144000Y-31484000D02*
X29344000Y-31484000D01*
X29208437Y-26964000D02*
X28144000Y-28028437D01*
X29208437Y-26964000D02*
X29344000Y-26964000D01*
X31599563Y-26964000D02*
X31464000Y-26964000D01*
X31599563Y-26964000D02*
X32664000Y-28028437D01*
X31964000Y-26224000D02*
X31964000Y-26724000D01*
X32214000Y-26474000D02*
X31714000Y-26474000D01*
X32664000Y-28028437D02*
X32664000Y-31484000D01*
X32664000Y-31484000D02*
X31464000Y-31484000D01*
X33278666Y-28028437D02*
X33278666Y-31484000D01*
X33278666Y-31484000D02*
X34478666Y-31484000D01*
X34343103Y-26964000D02*
X33278666Y-28028437D01*
X34343103Y-26964000D02*
X34478666Y-26964000D01*
X36734229Y-26964000D02*
X36598666Y-26964000D01*
X36734229Y-26964000D02*
X37798666Y-28028437D01*
X37098666Y-26224000D02*
X37098666Y-26724000D01*
X37348666Y-26474000D02*
X36848666Y-26474000D01*
X37798666Y-28028437D02*
X37798666Y-31484000D01*
X37798666Y-31484000D02*
X36598666Y-31484000D01*
X45777733Y-39876000D02*
X46120267Y-39876000D01*
X45777733Y-40896000D02*
X46120267Y-40896000D01*
M02*
