G04 #@! TF.GenerationSoftware,KiCad,Pcbnew,9.0.4*
G04 #@! TF.CreationDate,2025-11-10T08:14:31+01:00*
G04 #@! TF.ProjectId,CodecModule,436f6465-634d-46f6-9475-6c652e6b6963,rev?*
G04 #@! TF.SameCoordinates,Original*
G04 #@! TF.FileFunction,Legend,Bot*
G04 #@! TF.FilePolarity,Positive*
%FSLAX46Y46*%
G04 Gerber Fmt 4.6, Leading zero omitted, Abs format (unit mm)*
G04 Created by KiCad (PCBNEW 9.0.4) date 2025-11-10 08:14:31*
%MOMM*%
%LPD*%
G01*
G04 APERTURE LIST*
%ADD10C,0.250000*%
%ADD11C,0.500000*%
%ADD12C,0.300000*%
G04 APERTURE END LIST*
D10*
X32051428Y-28736142D02*
X32051428Y-27536142D01*
X31479999Y-28736142D02*
X31479999Y-27536142D01*
X31479999Y-27536142D02*
X30794285Y-28736142D01*
X30794285Y-28736142D02*
X30794285Y-27536142D01*
X28737142Y-28736142D02*
X29308570Y-28736142D01*
X29308570Y-28736142D02*
X29308570Y-27536142D01*
X31562571Y-35060892D02*
X30819714Y-35060892D01*
X30819714Y-35060892D02*
X31219714Y-35518035D01*
X31219714Y-35518035D02*
X31048285Y-35518035D01*
X31048285Y-35518035D02*
X30934000Y-35575178D01*
X30934000Y-35575178D02*
X30876857Y-35632321D01*
X30876857Y-35632321D02*
X30819714Y-35746607D01*
X30819714Y-35746607D02*
X30819714Y-36032321D01*
X30819714Y-36032321D02*
X30876857Y-36146607D01*
X30876857Y-36146607D02*
X30934000Y-36203750D01*
X30934000Y-36203750D02*
X31048285Y-36260892D01*
X31048285Y-36260892D02*
X31391142Y-36260892D01*
X31391142Y-36260892D02*
X31505428Y-36203750D01*
X31505428Y-36203750D02*
X31562571Y-36146607D01*
X30476857Y-35060892D02*
X30076857Y-36260892D01*
X30076857Y-36260892D02*
X29676857Y-35060892D01*
X29391143Y-35060892D02*
X28648286Y-35060892D01*
X28648286Y-35060892D02*
X29048286Y-35518035D01*
X29048286Y-35518035D02*
X28876857Y-35518035D01*
X28876857Y-35518035D02*
X28762572Y-35575178D01*
X28762572Y-35575178D02*
X28705429Y-35632321D01*
X28705429Y-35632321D02*
X28648286Y-35746607D01*
X28648286Y-35746607D02*
X28648286Y-36032321D01*
X28648286Y-36032321D02*
X28705429Y-36146607D01*
X28705429Y-36146607D02*
X28762572Y-36203750D01*
X28762572Y-36203750D02*
X28876857Y-36260892D01*
X28876857Y-36260892D02*
X29219714Y-36260892D01*
X29219714Y-36260892D02*
X29334000Y-36203750D01*
X29334000Y-36203750D02*
X29391143Y-36146607D01*
X34778570Y-48173571D02*
X34378570Y-48173571D01*
X34207142Y-48802142D02*
X34778570Y-48802142D01*
X34778570Y-48802142D02*
X34778570Y-47602142D01*
X34778570Y-47602142D02*
X34207142Y-47602142D01*
X33692856Y-48802142D02*
X33692856Y-47602142D01*
X33692856Y-47602142D02*
X33007142Y-48802142D01*
X33007142Y-48802142D02*
X33007142Y-47602142D01*
X32492856Y-48459285D02*
X31921428Y-48459285D01*
X32607142Y-48802142D02*
X32207142Y-47602142D01*
X32207142Y-47602142D02*
X31807142Y-48802142D01*
X31007142Y-48173571D02*
X30835714Y-48230714D01*
X30835714Y-48230714D02*
X30778571Y-48287857D01*
X30778571Y-48287857D02*
X30721428Y-48402142D01*
X30721428Y-48402142D02*
X30721428Y-48573571D01*
X30721428Y-48573571D02*
X30778571Y-48687857D01*
X30778571Y-48687857D02*
X30835714Y-48745000D01*
X30835714Y-48745000D02*
X30949999Y-48802142D01*
X30949999Y-48802142D02*
X31407142Y-48802142D01*
X31407142Y-48802142D02*
X31407142Y-47602142D01*
X31407142Y-47602142D02*
X31007142Y-47602142D01*
X31007142Y-47602142D02*
X30892857Y-47659285D01*
X30892857Y-47659285D02*
X30835714Y-47716428D01*
X30835714Y-47716428D02*
X30778571Y-47830714D01*
X30778571Y-47830714D02*
X30778571Y-47945000D01*
X30778571Y-47945000D02*
X30835714Y-48059285D01*
X30835714Y-48059285D02*
X30892857Y-48116428D01*
X30892857Y-48116428D02*
X31007142Y-48173571D01*
X31007142Y-48173571D02*
X31407142Y-48173571D01*
X29635714Y-48802142D02*
X30207142Y-48802142D01*
X30207142Y-48802142D02*
X30207142Y-47602142D01*
X29235713Y-48173571D02*
X28835713Y-48173571D01*
X28664285Y-48802142D02*
X29235713Y-48802142D01*
X29235713Y-48802142D02*
X29235713Y-47602142D01*
X29235713Y-47602142D02*
X28664285Y-47602142D01*
X47226714Y-38769142D02*
X47226714Y-37569142D01*
X47226714Y-37569142D02*
X46826714Y-38426285D01*
X46826714Y-38426285D02*
X46426714Y-37569142D01*
X46426714Y-37569142D02*
X46426714Y-38769142D01*
X45169571Y-38654857D02*
X45226714Y-38712000D01*
X45226714Y-38712000D02*
X45398142Y-38769142D01*
X45398142Y-38769142D02*
X45512428Y-38769142D01*
X45512428Y-38769142D02*
X45683857Y-38712000D01*
X45683857Y-38712000D02*
X45798142Y-38597714D01*
X45798142Y-38597714D02*
X45855285Y-38483428D01*
X45855285Y-38483428D02*
X45912428Y-38254857D01*
X45912428Y-38254857D02*
X45912428Y-38083428D01*
X45912428Y-38083428D02*
X45855285Y-37854857D01*
X45855285Y-37854857D02*
X45798142Y-37740571D01*
X45798142Y-37740571D02*
X45683857Y-37626285D01*
X45683857Y-37626285D02*
X45512428Y-37569142D01*
X45512428Y-37569142D02*
X45398142Y-37569142D01*
X45398142Y-37569142D02*
X45226714Y-37626285D01*
X45226714Y-37626285D02*
X45169571Y-37683428D01*
X44083857Y-38769142D02*
X44655285Y-38769142D01*
X44655285Y-38769142D02*
X44655285Y-37569142D01*
X43683856Y-38769142D02*
X43683856Y-37569142D01*
X42998142Y-38769142D02*
X43512428Y-38083428D01*
X42998142Y-37569142D02*
X43683856Y-38254857D01*
X46655286Y-41277392D02*
X47226714Y-41277392D01*
X47226714Y-41277392D02*
X47226714Y-40077392D01*
X45569571Y-41277392D02*
X45969571Y-40705964D01*
X46255285Y-41277392D02*
X46255285Y-40077392D01*
X46255285Y-40077392D02*
X45798142Y-40077392D01*
X45798142Y-40077392D02*
X45683857Y-40134535D01*
X45683857Y-40134535D02*
X45626714Y-40191678D01*
X45626714Y-40191678D02*
X45569571Y-40305964D01*
X45569571Y-40305964D02*
X45569571Y-40477392D01*
X45569571Y-40477392D02*
X45626714Y-40591678D01*
X45626714Y-40591678D02*
X45683857Y-40648821D01*
X45683857Y-40648821D02*
X45798142Y-40705964D01*
X45798142Y-40705964D02*
X46255285Y-40705964D01*
X44369571Y-41163107D02*
X44426714Y-41220250D01*
X44426714Y-41220250D02*
X44598142Y-41277392D01*
X44598142Y-41277392D02*
X44712428Y-41277392D01*
X44712428Y-41277392D02*
X44883857Y-41220250D01*
X44883857Y-41220250D02*
X44998142Y-41105964D01*
X44998142Y-41105964D02*
X45055285Y-40991678D01*
X45055285Y-40991678D02*
X45112428Y-40763107D01*
X45112428Y-40763107D02*
X45112428Y-40591678D01*
X45112428Y-40591678D02*
X45055285Y-40363107D01*
X45055285Y-40363107D02*
X44998142Y-40248821D01*
X44998142Y-40248821D02*
X44883857Y-40134535D01*
X44883857Y-40134535D02*
X44712428Y-40077392D01*
X44712428Y-40077392D02*
X44598142Y-40077392D01*
X44598142Y-40077392D02*
X44426714Y-40134535D01*
X44426714Y-40134535D02*
X44369571Y-40191678D01*
X43283857Y-41277392D02*
X43855285Y-41277392D01*
X43855285Y-41277392D02*
X43855285Y-40077392D01*
X42883856Y-41277392D02*
X42883856Y-40077392D01*
X42198142Y-41277392D02*
X42712428Y-40591678D01*
X42198142Y-40077392D02*
X42883856Y-40763107D01*
X32134000Y-46179607D02*
X32191143Y-46236750D01*
X32191143Y-46236750D02*
X32362571Y-46293892D01*
X32362571Y-46293892D02*
X32476857Y-46293892D01*
X32476857Y-46293892D02*
X32648286Y-46236750D01*
X32648286Y-46236750D02*
X32762571Y-46122464D01*
X32762571Y-46122464D02*
X32819714Y-46008178D01*
X32819714Y-46008178D02*
X32876857Y-45779607D01*
X32876857Y-45779607D02*
X32876857Y-45608178D01*
X32876857Y-45608178D02*
X32819714Y-45379607D01*
X32819714Y-45379607D02*
X32762571Y-45265321D01*
X32762571Y-45265321D02*
X32648286Y-45151035D01*
X32648286Y-45151035D02*
X32476857Y-45093892D01*
X32476857Y-45093892D02*
X32362571Y-45093892D01*
X32362571Y-45093892D02*
X32191143Y-45151035D01*
X32191143Y-45151035D02*
X32134000Y-45208178D01*
X31676857Y-46236750D02*
X31505429Y-46293892D01*
X31505429Y-46293892D02*
X31219714Y-46293892D01*
X31219714Y-46293892D02*
X31105429Y-46236750D01*
X31105429Y-46236750D02*
X31048286Y-46179607D01*
X31048286Y-46179607D02*
X30991143Y-46065321D01*
X30991143Y-46065321D02*
X30991143Y-45951035D01*
X30991143Y-45951035D02*
X31048286Y-45836750D01*
X31048286Y-45836750D02*
X31105429Y-45779607D01*
X31105429Y-45779607D02*
X31219714Y-45722464D01*
X31219714Y-45722464D02*
X31448286Y-45665321D01*
X31448286Y-45665321D02*
X31562571Y-45608178D01*
X31562571Y-45608178D02*
X31619714Y-45551035D01*
X31619714Y-45551035D02*
X31676857Y-45436750D01*
X31676857Y-45436750D02*
X31676857Y-45322464D01*
X31676857Y-45322464D02*
X31619714Y-45208178D01*
X31619714Y-45208178D02*
X31562571Y-45151035D01*
X31562571Y-45151035D02*
X31448286Y-45093892D01*
X31448286Y-45093892D02*
X31162571Y-45093892D01*
X31162571Y-45093892D02*
X30991143Y-45151035D01*
X30476857Y-46293892D02*
X30476857Y-45093892D01*
X29791143Y-46293892D02*
X30305429Y-45608178D01*
X29791143Y-45093892D02*
X30476857Y-45779607D01*
X29391143Y-45093892D02*
X28648286Y-45093892D01*
X28648286Y-45093892D02*
X29048286Y-45551035D01*
X29048286Y-45551035D02*
X28876857Y-45551035D01*
X28876857Y-45551035D02*
X28762572Y-45608178D01*
X28762572Y-45608178D02*
X28705429Y-45665321D01*
X28705429Y-45665321D02*
X28648286Y-45779607D01*
X28648286Y-45779607D02*
X28648286Y-46065321D01*
X28648286Y-46065321D02*
X28705429Y-46179607D01*
X28705429Y-46179607D02*
X28762572Y-46236750D01*
X28762572Y-46236750D02*
X28876857Y-46293892D01*
X28876857Y-46293892D02*
X29219714Y-46293892D01*
X29219714Y-46293892D02*
X29334000Y-46236750D01*
X29334000Y-46236750D02*
X29391143Y-46179607D01*
X47306330Y-48802142D02*
X47306330Y-47602142D01*
X47306330Y-47602142D02*
X47020616Y-47602142D01*
X47020616Y-47602142D02*
X46849187Y-47659285D01*
X46849187Y-47659285D02*
X46734902Y-47773571D01*
X46734902Y-47773571D02*
X46677759Y-47887857D01*
X46677759Y-47887857D02*
X46620616Y-48116428D01*
X46620616Y-48116428D02*
X46620616Y-48287857D01*
X46620616Y-48287857D02*
X46677759Y-48516428D01*
X46677759Y-48516428D02*
X46734902Y-48630714D01*
X46734902Y-48630714D02*
X46849187Y-48745000D01*
X46849187Y-48745000D02*
X47020616Y-48802142D01*
X47020616Y-48802142D02*
X47306330Y-48802142D01*
X45877759Y-47602142D02*
X45649187Y-47602142D01*
X45649187Y-47602142D02*
X45534902Y-47659285D01*
X45534902Y-47659285D02*
X45420616Y-47773571D01*
X45420616Y-47773571D02*
X45363473Y-48002142D01*
X45363473Y-48002142D02*
X45363473Y-48402142D01*
X45363473Y-48402142D02*
X45420616Y-48630714D01*
X45420616Y-48630714D02*
X45534902Y-48745000D01*
X45534902Y-48745000D02*
X45649187Y-48802142D01*
X45649187Y-48802142D02*
X45877759Y-48802142D01*
X45877759Y-48802142D02*
X45992045Y-48745000D01*
X45992045Y-48745000D02*
X46106330Y-48630714D01*
X46106330Y-48630714D02*
X46163473Y-48402142D01*
X46163473Y-48402142D02*
X46163473Y-48002142D01*
X46163473Y-48002142D02*
X46106330Y-47773571D01*
X46106330Y-47773571D02*
X45992045Y-47659285D01*
X45992045Y-47659285D02*
X45877759Y-47602142D01*
X44849187Y-47602142D02*
X44849187Y-48573571D01*
X44849187Y-48573571D02*
X44792044Y-48687857D01*
X44792044Y-48687857D02*
X44734902Y-48745000D01*
X44734902Y-48745000D02*
X44620616Y-48802142D01*
X44620616Y-48802142D02*
X44392044Y-48802142D01*
X44392044Y-48802142D02*
X44277759Y-48745000D01*
X44277759Y-48745000D02*
X44220616Y-48687857D01*
X44220616Y-48687857D02*
X44163473Y-48573571D01*
X44163473Y-48573571D02*
X44163473Y-47602142D01*
X43763473Y-47602142D02*
X43077759Y-47602142D01*
X43420616Y-48802142D02*
X43420616Y-47602142D01*
X46826713Y-35632321D02*
X46655285Y-35689464D01*
X46655285Y-35689464D02*
X46598142Y-35746607D01*
X46598142Y-35746607D02*
X46540999Y-35860892D01*
X46540999Y-35860892D02*
X46540999Y-36032321D01*
X46540999Y-36032321D02*
X46598142Y-36146607D01*
X46598142Y-36146607D02*
X46655285Y-36203750D01*
X46655285Y-36203750D02*
X46769570Y-36260892D01*
X46769570Y-36260892D02*
X47226713Y-36260892D01*
X47226713Y-36260892D02*
X47226713Y-35060892D01*
X47226713Y-35060892D02*
X46826713Y-35060892D01*
X46826713Y-35060892D02*
X46712428Y-35118035D01*
X46712428Y-35118035D02*
X46655285Y-35175178D01*
X46655285Y-35175178D02*
X46598142Y-35289464D01*
X46598142Y-35289464D02*
X46598142Y-35403750D01*
X46598142Y-35403750D02*
X46655285Y-35518035D01*
X46655285Y-35518035D02*
X46712428Y-35575178D01*
X46712428Y-35575178D02*
X46826713Y-35632321D01*
X46826713Y-35632321D02*
X47226713Y-35632321D01*
X45340999Y-36146607D02*
X45398142Y-36203750D01*
X45398142Y-36203750D02*
X45569570Y-36260892D01*
X45569570Y-36260892D02*
X45683856Y-36260892D01*
X45683856Y-36260892D02*
X45855285Y-36203750D01*
X45855285Y-36203750D02*
X45969570Y-36089464D01*
X45969570Y-36089464D02*
X46026713Y-35975178D01*
X46026713Y-35975178D02*
X46083856Y-35746607D01*
X46083856Y-35746607D02*
X46083856Y-35575178D01*
X46083856Y-35575178D02*
X46026713Y-35346607D01*
X46026713Y-35346607D02*
X45969570Y-35232321D01*
X45969570Y-35232321D02*
X45855285Y-35118035D01*
X45855285Y-35118035D02*
X45683856Y-35060892D01*
X45683856Y-35060892D02*
X45569570Y-35060892D01*
X45569570Y-35060892D02*
X45398142Y-35118035D01*
X45398142Y-35118035D02*
X45340999Y-35175178D01*
X44255285Y-36260892D02*
X44826713Y-36260892D01*
X44826713Y-36260892D02*
X44826713Y-35060892D01*
X43855284Y-36260892D02*
X43855284Y-35060892D01*
X43169570Y-36260892D02*
X43683856Y-35575178D01*
X43169570Y-35060892D02*
X43855284Y-35746607D01*
X46998143Y-30044392D02*
X46769571Y-30044392D01*
X46769571Y-30044392D02*
X46655286Y-30101535D01*
X46655286Y-30101535D02*
X46541000Y-30215821D01*
X46541000Y-30215821D02*
X46483857Y-30444392D01*
X46483857Y-30444392D02*
X46483857Y-30844392D01*
X46483857Y-30844392D02*
X46541000Y-31072964D01*
X46541000Y-31072964D02*
X46655286Y-31187250D01*
X46655286Y-31187250D02*
X46769571Y-31244392D01*
X46769571Y-31244392D02*
X46998143Y-31244392D01*
X46998143Y-31244392D02*
X47112429Y-31187250D01*
X47112429Y-31187250D02*
X47226714Y-31072964D01*
X47226714Y-31072964D02*
X47283857Y-30844392D01*
X47283857Y-30844392D02*
X47283857Y-30444392D01*
X47283857Y-30444392D02*
X47226714Y-30215821D01*
X47226714Y-30215821D02*
X47112429Y-30101535D01*
X47112429Y-30101535D02*
X46998143Y-30044392D01*
X45969571Y-30044392D02*
X45969571Y-31015821D01*
X45969571Y-31015821D02*
X45912428Y-31130107D01*
X45912428Y-31130107D02*
X45855286Y-31187250D01*
X45855286Y-31187250D02*
X45741000Y-31244392D01*
X45741000Y-31244392D02*
X45512428Y-31244392D01*
X45512428Y-31244392D02*
X45398143Y-31187250D01*
X45398143Y-31187250D02*
X45341000Y-31130107D01*
X45341000Y-31130107D02*
X45283857Y-31015821D01*
X45283857Y-31015821D02*
X45283857Y-30044392D01*
X44883857Y-30044392D02*
X44198143Y-30044392D01*
X44541000Y-31244392D02*
X44541000Y-30044392D01*
X42198142Y-31244392D02*
X42598142Y-30672964D01*
X42883856Y-31244392D02*
X42883856Y-30044392D01*
X42883856Y-30044392D02*
X42426713Y-30044392D01*
X42426713Y-30044392D02*
X42312428Y-30101535D01*
X42312428Y-30101535D02*
X42255285Y-30158678D01*
X42255285Y-30158678D02*
X42198142Y-30272964D01*
X42198142Y-30272964D02*
X42198142Y-30444392D01*
X42198142Y-30444392D02*
X42255285Y-30558678D01*
X42255285Y-30558678D02*
X42312428Y-30615821D01*
X42312428Y-30615821D02*
X42426713Y-30672964D01*
X42426713Y-30672964D02*
X42883856Y-30672964D01*
X47230330Y-46262142D02*
X47230330Y-45062142D01*
X47230330Y-45062142D02*
X46944616Y-45062142D01*
X46944616Y-45062142D02*
X46773187Y-45119285D01*
X46773187Y-45119285D02*
X46658902Y-45233571D01*
X46658902Y-45233571D02*
X46601759Y-45347857D01*
X46601759Y-45347857D02*
X46544616Y-45576428D01*
X46544616Y-45576428D02*
X46544616Y-45747857D01*
X46544616Y-45747857D02*
X46601759Y-45976428D01*
X46601759Y-45976428D02*
X46658902Y-46090714D01*
X46658902Y-46090714D02*
X46773187Y-46205000D01*
X46773187Y-46205000D02*
X46944616Y-46262142D01*
X46944616Y-46262142D02*
X47230330Y-46262142D01*
X46030330Y-46262142D02*
X46030330Y-45062142D01*
X45458901Y-46262142D02*
X45458901Y-45062142D01*
X45458901Y-45062142D02*
X44773187Y-46262142D01*
X44773187Y-46262142D02*
X44773187Y-45062142D01*
X32076857Y-31244392D02*
X32076857Y-30044392D01*
X31505428Y-31244392D02*
X31505428Y-30044392D01*
X31505428Y-30044392D02*
X30819714Y-31244392D01*
X30819714Y-31244392D02*
X30819714Y-30044392D01*
X28648285Y-31244392D02*
X29048285Y-30672964D01*
X29333999Y-31244392D02*
X29333999Y-30044392D01*
X29333999Y-30044392D02*
X28876856Y-30044392D01*
X28876856Y-30044392D02*
X28762571Y-30101535D01*
X28762571Y-30101535D02*
X28705428Y-30158678D01*
X28705428Y-30158678D02*
X28648285Y-30272964D01*
X28648285Y-30272964D02*
X28648285Y-30444392D01*
X28648285Y-30444392D02*
X28705428Y-30558678D01*
X28705428Y-30558678D02*
X28762571Y-30615821D01*
X28762571Y-30615821D02*
X28876856Y-30672964D01*
X28876856Y-30672964D02*
X29333999Y-30672964D01*
X46598142Y-32609785D02*
X46712428Y-32552642D01*
X46712428Y-32552642D02*
X46883856Y-32552642D01*
X46883856Y-32552642D02*
X47055285Y-32609785D01*
X47055285Y-32609785D02*
X47169570Y-32724071D01*
X47169570Y-32724071D02*
X47226713Y-32838357D01*
X47226713Y-32838357D02*
X47283856Y-33066928D01*
X47283856Y-33066928D02*
X47283856Y-33238357D01*
X47283856Y-33238357D02*
X47226713Y-33466928D01*
X47226713Y-33466928D02*
X47169570Y-33581214D01*
X47169570Y-33581214D02*
X47055285Y-33695500D01*
X47055285Y-33695500D02*
X46883856Y-33752642D01*
X46883856Y-33752642D02*
X46769570Y-33752642D01*
X46769570Y-33752642D02*
X46598142Y-33695500D01*
X46598142Y-33695500D02*
X46540999Y-33638357D01*
X46540999Y-33638357D02*
X46540999Y-33238357D01*
X46540999Y-33238357D02*
X46769570Y-33238357D01*
X46026713Y-33752642D02*
X46026713Y-32552642D01*
X46026713Y-32552642D02*
X45340999Y-33752642D01*
X45340999Y-33752642D02*
X45340999Y-32552642D01*
X44769570Y-33752642D02*
X44769570Y-32552642D01*
X44769570Y-32552642D02*
X44483856Y-32552642D01*
X44483856Y-32552642D02*
X44312427Y-32609785D01*
X44312427Y-32609785D02*
X44198142Y-32724071D01*
X44198142Y-32724071D02*
X44140999Y-32838357D01*
X44140999Y-32838357D02*
X44083856Y-33066928D01*
X44083856Y-33066928D02*
X44083856Y-33238357D01*
X44083856Y-33238357D02*
X44140999Y-33466928D01*
X44140999Y-33466928D02*
X44198142Y-33581214D01*
X44198142Y-33581214D02*
X44312427Y-33695500D01*
X44312427Y-33695500D02*
X44483856Y-33752642D01*
X44483856Y-33752642D02*
X44769570Y-33752642D01*
X32134000Y-43671357D02*
X32191143Y-43728500D01*
X32191143Y-43728500D02*
X32362571Y-43785642D01*
X32362571Y-43785642D02*
X32476857Y-43785642D01*
X32476857Y-43785642D02*
X32648286Y-43728500D01*
X32648286Y-43728500D02*
X32762571Y-43614214D01*
X32762571Y-43614214D02*
X32819714Y-43499928D01*
X32819714Y-43499928D02*
X32876857Y-43271357D01*
X32876857Y-43271357D02*
X32876857Y-43099928D01*
X32876857Y-43099928D02*
X32819714Y-42871357D01*
X32819714Y-42871357D02*
X32762571Y-42757071D01*
X32762571Y-42757071D02*
X32648286Y-42642785D01*
X32648286Y-42642785D02*
X32476857Y-42585642D01*
X32476857Y-42585642D02*
X32362571Y-42585642D01*
X32362571Y-42585642D02*
X32191143Y-42642785D01*
X32191143Y-42642785D02*
X32134000Y-42699928D01*
X31676857Y-43728500D02*
X31505429Y-43785642D01*
X31505429Y-43785642D02*
X31219714Y-43785642D01*
X31219714Y-43785642D02*
X31105429Y-43728500D01*
X31105429Y-43728500D02*
X31048286Y-43671357D01*
X31048286Y-43671357D02*
X30991143Y-43557071D01*
X30991143Y-43557071D02*
X30991143Y-43442785D01*
X30991143Y-43442785D02*
X31048286Y-43328500D01*
X31048286Y-43328500D02*
X31105429Y-43271357D01*
X31105429Y-43271357D02*
X31219714Y-43214214D01*
X31219714Y-43214214D02*
X31448286Y-43157071D01*
X31448286Y-43157071D02*
X31562571Y-43099928D01*
X31562571Y-43099928D02*
X31619714Y-43042785D01*
X31619714Y-43042785D02*
X31676857Y-42928500D01*
X31676857Y-42928500D02*
X31676857Y-42814214D01*
X31676857Y-42814214D02*
X31619714Y-42699928D01*
X31619714Y-42699928D02*
X31562571Y-42642785D01*
X31562571Y-42642785D02*
X31448286Y-42585642D01*
X31448286Y-42585642D02*
X31162571Y-42585642D01*
X31162571Y-42585642D02*
X30991143Y-42642785D01*
X30476857Y-43785642D02*
X30476857Y-42585642D01*
X29791143Y-43785642D02*
X30305429Y-43099928D01*
X29791143Y-42585642D02*
X30476857Y-43271357D01*
X29334000Y-42699928D02*
X29276857Y-42642785D01*
X29276857Y-42642785D02*
X29162572Y-42585642D01*
X29162572Y-42585642D02*
X28876857Y-42585642D01*
X28876857Y-42585642D02*
X28762572Y-42642785D01*
X28762572Y-42642785D02*
X28705429Y-42699928D01*
X28705429Y-42699928D02*
X28648286Y-42814214D01*
X28648286Y-42814214D02*
X28648286Y-42928500D01*
X28648286Y-42928500D02*
X28705429Y-43099928D01*
X28705429Y-43099928D02*
X29391143Y-43785642D01*
X29391143Y-43785642D02*
X28648286Y-43785642D01*
X32134000Y-38654857D02*
X32191143Y-38712000D01*
X32191143Y-38712000D02*
X32362571Y-38769142D01*
X32362571Y-38769142D02*
X32476857Y-38769142D01*
X32476857Y-38769142D02*
X32648286Y-38712000D01*
X32648286Y-38712000D02*
X32762571Y-38597714D01*
X32762571Y-38597714D02*
X32819714Y-38483428D01*
X32819714Y-38483428D02*
X32876857Y-38254857D01*
X32876857Y-38254857D02*
X32876857Y-38083428D01*
X32876857Y-38083428D02*
X32819714Y-37854857D01*
X32819714Y-37854857D02*
X32762571Y-37740571D01*
X32762571Y-37740571D02*
X32648286Y-37626285D01*
X32648286Y-37626285D02*
X32476857Y-37569142D01*
X32476857Y-37569142D02*
X32362571Y-37569142D01*
X32362571Y-37569142D02*
X32191143Y-37626285D01*
X32191143Y-37626285D02*
X32134000Y-37683428D01*
X31676857Y-38712000D02*
X31505429Y-38769142D01*
X31505429Y-38769142D02*
X31219714Y-38769142D01*
X31219714Y-38769142D02*
X31105429Y-38712000D01*
X31105429Y-38712000D02*
X31048286Y-38654857D01*
X31048286Y-38654857D02*
X30991143Y-38540571D01*
X30991143Y-38540571D02*
X30991143Y-38426285D01*
X30991143Y-38426285D02*
X31048286Y-38312000D01*
X31048286Y-38312000D02*
X31105429Y-38254857D01*
X31105429Y-38254857D02*
X31219714Y-38197714D01*
X31219714Y-38197714D02*
X31448286Y-38140571D01*
X31448286Y-38140571D02*
X31562571Y-38083428D01*
X31562571Y-38083428D02*
X31619714Y-38026285D01*
X31619714Y-38026285D02*
X31676857Y-37912000D01*
X31676857Y-37912000D02*
X31676857Y-37797714D01*
X31676857Y-37797714D02*
X31619714Y-37683428D01*
X31619714Y-37683428D02*
X31562571Y-37626285D01*
X31562571Y-37626285D02*
X31448286Y-37569142D01*
X31448286Y-37569142D02*
X31162571Y-37569142D01*
X31162571Y-37569142D02*
X30991143Y-37626285D01*
X30476857Y-38769142D02*
X30476857Y-37569142D01*
X29791143Y-38769142D02*
X30305429Y-38083428D01*
X29791143Y-37569142D02*
X30476857Y-38254857D01*
X29048286Y-37569142D02*
X28934000Y-37569142D01*
X28934000Y-37569142D02*
X28819714Y-37626285D01*
X28819714Y-37626285D02*
X28762572Y-37683428D01*
X28762572Y-37683428D02*
X28705429Y-37797714D01*
X28705429Y-37797714D02*
X28648286Y-38026285D01*
X28648286Y-38026285D02*
X28648286Y-38312000D01*
X28648286Y-38312000D02*
X28705429Y-38540571D01*
X28705429Y-38540571D02*
X28762572Y-38654857D01*
X28762572Y-38654857D02*
X28819714Y-38712000D01*
X28819714Y-38712000D02*
X28934000Y-38769142D01*
X28934000Y-38769142D02*
X29048286Y-38769142D01*
X29048286Y-38769142D02*
X29162572Y-38712000D01*
X29162572Y-38712000D02*
X29219714Y-38654857D01*
X29219714Y-38654857D02*
X29276857Y-38540571D01*
X29276857Y-38540571D02*
X29334000Y-38312000D01*
X29334000Y-38312000D02*
X29334000Y-38026285D01*
X29334000Y-38026285D02*
X29276857Y-37797714D01*
X29276857Y-37797714D02*
X29219714Y-37683428D01*
X29219714Y-37683428D02*
X29162572Y-37626285D01*
X29162572Y-37626285D02*
X29048286Y-37569142D01*
X46598142Y-42642785D02*
X46712428Y-42585642D01*
X46712428Y-42585642D02*
X46883856Y-42585642D01*
X46883856Y-42585642D02*
X47055285Y-42642785D01*
X47055285Y-42642785D02*
X47169570Y-42757071D01*
X47169570Y-42757071D02*
X47226713Y-42871357D01*
X47226713Y-42871357D02*
X47283856Y-43099928D01*
X47283856Y-43099928D02*
X47283856Y-43271357D01*
X47283856Y-43271357D02*
X47226713Y-43499928D01*
X47226713Y-43499928D02*
X47169570Y-43614214D01*
X47169570Y-43614214D02*
X47055285Y-43728500D01*
X47055285Y-43728500D02*
X46883856Y-43785642D01*
X46883856Y-43785642D02*
X46769570Y-43785642D01*
X46769570Y-43785642D02*
X46598142Y-43728500D01*
X46598142Y-43728500D02*
X46540999Y-43671357D01*
X46540999Y-43671357D02*
X46540999Y-43271357D01*
X46540999Y-43271357D02*
X46769570Y-43271357D01*
X46026713Y-43785642D02*
X46026713Y-42585642D01*
X46026713Y-42585642D02*
X45340999Y-43785642D01*
X45340999Y-43785642D02*
X45340999Y-42585642D01*
X44769570Y-43785642D02*
X44769570Y-42585642D01*
X44769570Y-42585642D02*
X44483856Y-42585642D01*
X44483856Y-42585642D02*
X44312427Y-42642785D01*
X44312427Y-42642785D02*
X44198142Y-42757071D01*
X44198142Y-42757071D02*
X44140999Y-42871357D01*
X44140999Y-42871357D02*
X44083856Y-43099928D01*
X44083856Y-43099928D02*
X44083856Y-43271357D01*
X44083856Y-43271357D02*
X44140999Y-43499928D01*
X44140999Y-43499928D02*
X44198142Y-43614214D01*
X44198142Y-43614214D02*
X44312427Y-43728500D01*
X44312427Y-43728500D02*
X44483856Y-43785642D01*
X44483856Y-43785642D02*
X44769570Y-43785642D01*
X32134000Y-41163107D02*
X32191143Y-41220250D01*
X32191143Y-41220250D02*
X32362571Y-41277392D01*
X32362571Y-41277392D02*
X32476857Y-41277392D01*
X32476857Y-41277392D02*
X32648286Y-41220250D01*
X32648286Y-41220250D02*
X32762571Y-41105964D01*
X32762571Y-41105964D02*
X32819714Y-40991678D01*
X32819714Y-40991678D02*
X32876857Y-40763107D01*
X32876857Y-40763107D02*
X32876857Y-40591678D01*
X32876857Y-40591678D02*
X32819714Y-40363107D01*
X32819714Y-40363107D02*
X32762571Y-40248821D01*
X32762571Y-40248821D02*
X32648286Y-40134535D01*
X32648286Y-40134535D02*
X32476857Y-40077392D01*
X32476857Y-40077392D02*
X32362571Y-40077392D01*
X32362571Y-40077392D02*
X32191143Y-40134535D01*
X32191143Y-40134535D02*
X32134000Y-40191678D01*
X31676857Y-41220250D02*
X31505429Y-41277392D01*
X31505429Y-41277392D02*
X31219714Y-41277392D01*
X31219714Y-41277392D02*
X31105429Y-41220250D01*
X31105429Y-41220250D02*
X31048286Y-41163107D01*
X31048286Y-41163107D02*
X30991143Y-41048821D01*
X30991143Y-41048821D02*
X30991143Y-40934535D01*
X30991143Y-40934535D02*
X31048286Y-40820250D01*
X31048286Y-40820250D02*
X31105429Y-40763107D01*
X31105429Y-40763107D02*
X31219714Y-40705964D01*
X31219714Y-40705964D02*
X31448286Y-40648821D01*
X31448286Y-40648821D02*
X31562571Y-40591678D01*
X31562571Y-40591678D02*
X31619714Y-40534535D01*
X31619714Y-40534535D02*
X31676857Y-40420250D01*
X31676857Y-40420250D02*
X31676857Y-40305964D01*
X31676857Y-40305964D02*
X31619714Y-40191678D01*
X31619714Y-40191678D02*
X31562571Y-40134535D01*
X31562571Y-40134535D02*
X31448286Y-40077392D01*
X31448286Y-40077392D02*
X31162571Y-40077392D01*
X31162571Y-40077392D02*
X30991143Y-40134535D01*
X30476857Y-41277392D02*
X30476857Y-40077392D01*
X29791143Y-41277392D02*
X30305429Y-40591678D01*
X29791143Y-40077392D02*
X30476857Y-40763107D01*
X28648286Y-41277392D02*
X29334000Y-41277392D01*
X28991143Y-41277392D02*
X28991143Y-40077392D01*
X28991143Y-40077392D02*
X29105429Y-40248821D01*
X29105429Y-40248821D02*
X29219714Y-40363107D01*
X29219714Y-40363107D02*
X29334000Y-40420250D01*
X46973857Y-27536142D02*
X46745285Y-27536142D01*
X46745285Y-27536142D02*
X46631000Y-27593285D01*
X46631000Y-27593285D02*
X46516714Y-27707571D01*
X46516714Y-27707571D02*
X46459571Y-27936142D01*
X46459571Y-27936142D02*
X46459571Y-28336142D01*
X46459571Y-28336142D02*
X46516714Y-28564714D01*
X46516714Y-28564714D02*
X46631000Y-28679000D01*
X46631000Y-28679000D02*
X46745285Y-28736142D01*
X46745285Y-28736142D02*
X46973857Y-28736142D01*
X46973857Y-28736142D02*
X47088143Y-28679000D01*
X47088143Y-28679000D02*
X47202428Y-28564714D01*
X47202428Y-28564714D02*
X47259571Y-28336142D01*
X47259571Y-28336142D02*
X47259571Y-27936142D01*
X47259571Y-27936142D02*
X47202428Y-27707571D01*
X47202428Y-27707571D02*
X47088143Y-27593285D01*
X47088143Y-27593285D02*
X46973857Y-27536142D01*
X45945285Y-27536142D02*
X45945285Y-28507571D01*
X45945285Y-28507571D02*
X45888142Y-28621857D01*
X45888142Y-28621857D02*
X45831000Y-28679000D01*
X45831000Y-28679000D02*
X45716714Y-28736142D01*
X45716714Y-28736142D02*
X45488142Y-28736142D01*
X45488142Y-28736142D02*
X45373857Y-28679000D01*
X45373857Y-28679000D02*
X45316714Y-28621857D01*
X45316714Y-28621857D02*
X45259571Y-28507571D01*
X45259571Y-28507571D02*
X45259571Y-27536142D01*
X44859571Y-27536142D02*
X44173857Y-27536142D01*
X44516714Y-28736142D02*
X44516714Y-27536142D01*
X42288142Y-28736142D02*
X42859570Y-28736142D01*
X42859570Y-28736142D02*
X42859570Y-27536142D01*
X31162571Y-32609785D02*
X31276857Y-32552642D01*
X31276857Y-32552642D02*
X31448285Y-32552642D01*
X31448285Y-32552642D02*
X31619714Y-32609785D01*
X31619714Y-32609785D02*
X31733999Y-32724071D01*
X31733999Y-32724071D02*
X31791142Y-32838357D01*
X31791142Y-32838357D02*
X31848285Y-33066928D01*
X31848285Y-33066928D02*
X31848285Y-33238357D01*
X31848285Y-33238357D02*
X31791142Y-33466928D01*
X31791142Y-33466928D02*
X31733999Y-33581214D01*
X31733999Y-33581214D02*
X31619714Y-33695500D01*
X31619714Y-33695500D02*
X31448285Y-33752642D01*
X31448285Y-33752642D02*
X31333999Y-33752642D01*
X31333999Y-33752642D02*
X31162571Y-33695500D01*
X31162571Y-33695500D02*
X31105428Y-33638357D01*
X31105428Y-33638357D02*
X31105428Y-33238357D01*
X31105428Y-33238357D02*
X31333999Y-33238357D01*
X30591142Y-33752642D02*
X30591142Y-32552642D01*
X30591142Y-32552642D02*
X29905428Y-33752642D01*
X29905428Y-33752642D02*
X29905428Y-32552642D01*
X29333999Y-33752642D02*
X29333999Y-32552642D01*
X29333999Y-32552642D02*
X29048285Y-32552642D01*
X29048285Y-32552642D02*
X28876856Y-32609785D01*
X28876856Y-32609785D02*
X28762571Y-32724071D01*
X28762571Y-32724071D02*
X28705428Y-32838357D01*
X28705428Y-32838357D02*
X28648285Y-33066928D01*
X28648285Y-33066928D02*
X28648285Y-33238357D01*
X28648285Y-33238357D02*
X28705428Y-33466928D01*
X28705428Y-33466928D02*
X28762571Y-33581214D01*
X28762571Y-33581214D02*
X28876856Y-33695500D01*
X28876856Y-33695500D02*
X29048285Y-33752642D01*
X29048285Y-33752642D02*
X29333999Y-33752642D01*
D11*
X36434642Y-32004762D02*
X37815595Y-32004762D01*
X34915595Y-30971429D02*
X36434642Y-32004762D01*
X36434642Y-32004762D02*
X34915595Y-33038095D01*
X34915595Y-34071429D02*
X37263214Y-34071429D01*
X37263214Y-34071429D02*
X37539404Y-34219048D01*
X37539404Y-34219048D02*
X37677500Y-34366667D01*
X37677500Y-34366667D02*
X37815595Y-34661905D01*
X37815595Y-34661905D02*
X37815595Y-35252381D01*
X37815595Y-35252381D02*
X37677500Y-35547619D01*
X37677500Y-35547619D02*
X37539404Y-35695238D01*
X37539404Y-35695238D02*
X37263214Y-35842857D01*
X37263214Y-35842857D02*
X34915595Y-35842857D01*
X37815595Y-37319048D02*
X34915595Y-37319048D01*
X34915595Y-37319048D02*
X36987023Y-38352381D01*
X36987023Y-38352381D02*
X34915595Y-39385714D01*
X34915595Y-39385714D02*
X37815595Y-39385714D01*
X37815595Y-40861905D02*
X34915595Y-40861905D01*
X34915595Y-40861905D02*
X36987023Y-41895238D01*
X36987023Y-41895238D02*
X34915595Y-42928571D01*
X34915595Y-42928571D02*
X37815595Y-42928571D01*
X36434642Y-44995238D02*
X37815595Y-44995238D01*
X34915595Y-43961905D02*
X36434642Y-44995238D01*
X36434642Y-44995238D02*
X34915595Y-46028571D01*
D12*
X40127757Y-30939014D02*
X40127757Y-31676824D01*
X40556328Y-30791452D02*
X39056328Y-31307919D01*
X39056328Y-31307919D02*
X40556328Y-31824386D01*
X40556328Y-32340852D02*
X39056328Y-32340852D01*
X39056328Y-32340852D02*
X39056328Y-32709757D01*
X39056328Y-32709757D02*
X39127757Y-32931100D01*
X39127757Y-32931100D02*
X39270614Y-33078662D01*
X39270614Y-33078662D02*
X39413471Y-33152443D01*
X39413471Y-33152443D02*
X39699185Y-33226224D01*
X39699185Y-33226224D02*
X39913471Y-33226224D01*
X39913471Y-33226224D02*
X40199185Y-33152443D01*
X40199185Y-33152443D02*
X40342042Y-33078662D01*
X40342042Y-33078662D02*
X40484900Y-32931100D01*
X40484900Y-32931100D02*
X40556328Y-32709757D01*
X40556328Y-32709757D02*
X40556328Y-32340852D01*
X40556328Y-33890252D02*
X39056328Y-33890252D01*
X39056328Y-33890252D02*
X39056328Y-34259157D01*
X39056328Y-34259157D02*
X39127757Y-34480500D01*
X39127757Y-34480500D02*
X39270614Y-34628062D01*
X39270614Y-34628062D02*
X39413471Y-34701843D01*
X39413471Y-34701843D02*
X39699185Y-34775624D01*
X39699185Y-34775624D02*
X39913471Y-34775624D01*
X39913471Y-34775624D02*
X40199185Y-34701843D01*
X40199185Y-34701843D02*
X40342042Y-34628062D01*
X40342042Y-34628062D02*
X40484900Y-34480500D01*
X40484900Y-34480500D02*
X40556328Y-34259157D01*
X40556328Y-34259157D02*
X40556328Y-33890252D01*
X40127757Y-35365871D02*
X40127757Y-36103681D01*
X40556328Y-35218309D02*
X39056328Y-35734776D01*
X39056328Y-35734776D02*
X40556328Y-36251243D01*
X40413471Y-38833576D02*
X40484900Y-38759795D01*
X40484900Y-38759795D02*
X40556328Y-38538452D01*
X40556328Y-38538452D02*
X40556328Y-38390890D01*
X40556328Y-38390890D02*
X40484900Y-38169547D01*
X40484900Y-38169547D02*
X40342042Y-38021985D01*
X40342042Y-38021985D02*
X40199185Y-37948204D01*
X40199185Y-37948204D02*
X39913471Y-37874423D01*
X39913471Y-37874423D02*
X39699185Y-37874423D01*
X39699185Y-37874423D02*
X39413471Y-37948204D01*
X39413471Y-37948204D02*
X39270614Y-38021985D01*
X39270614Y-38021985D02*
X39127757Y-38169547D01*
X39127757Y-38169547D02*
X39056328Y-38390890D01*
X39056328Y-38390890D02*
X39056328Y-38538452D01*
X39056328Y-38538452D02*
X39127757Y-38759795D01*
X39127757Y-38759795D02*
X39199185Y-38833576D01*
X39056328Y-39792728D02*
X39056328Y-40087852D01*
X39056328Y-40087852D02*
X39127757Y-40235414D01*
X39127757Y-40235414D02*
X39270614Y-40382976D01*
X39270614Y-40382976D02*
X39556328Y-40456757D01*
X39556328Y-40456757D02*
X40056328Y-40456757D01*
X40056328Y-40456757D02*
X40342042Y-40382976D01*
X40342042Y-40382976D02*
X40484900Y-40235414D01*
X40484900Y-40235414D02*
X40556328Y-40087852D01*
X40556328Y-40087852D02*
X40556328Y-39792728D01*
X40556328Y-39792728D02*
X40484900Y-39645166D01*
X40484900Y-39645166D02*
X40342042Y-39497604D01*
X40342042Y-39497604D02*
X40056328Y-39423823D01*
X40056328Y-39423823D02*
X39556328Y-39423823D01*
X39556328Y-39423823D02*
X39270614Y-39497604D01*
X39270614Y-39497604D02*
X39127757Y-39645166D01*
X39127757Y-39645166D02*
X39056328Y-39792728D01*
X39056328Y-41415909D02*
X39056328Y-41711033D01*
X39056328Y-41711033D02*
X39127757Y-41858595D01*
X39127757Y-41858595D02*
X39270614Y-42006157D01*
X39270614Y-42006157D02*
X39556328Y-42079938D01*
X39556328Y-42079938D02*
X40056328Y-42079938D01*
X40056328Y-42079938D02*
X40342042Y-42006157D01*
X40342042Y-42006157D02*
X40484900Y-41858595D01*
X40484900Y-41858595D02*
X40556328Y-41711033D01*
X40556328Y-41711033D02*
X40556328Y-41415909D01*
X40556328Y-41415909D02*
X40484900Y-41268347D01*
X40484900Y-41268347D02*
X40342042Y-41120785D01*
X40342042Y-41120785D02*
X40056328Y-41047004D01*
X40056328Y-41047004D02*
X39556328Y-41047004D01*
X39556328Y-41047004D02*
X39270614Y-41120785D01*
X39270614Y-41120785D02*
X39127757Y-41268347D01*
X39127757Y-41268347D02*
X39056328Y-41415909D01*
X40556328Y-42743966D02*
X39056328Y-42743966D01*
X40556328Y-43629338D02*
X39699185Y-42965309D01*
X39056328Y-43629338D02*
X39913471Y-42743966D01*
X40556328Y-44293366D02*
X39056328Y-44293366D01*
X39770614Y-45031176D02*
X39770614Y-45547643D01*
X40556328Y-45768986D02*
X40556328Y-45031176D01*
X40556328Y-45031176D02*
X39056328Y-45031176D01*
X39056328Y-45031176D02*
X39056328Y-45768986D01*
M02*
