M48
; DRILL file {KiCad 9.0.4} date 2025-11-10T08:14:25+0100
; FORMAT={-:-/ absolute / metric / decimal}
; #@! TF.CreationDate,2025-11-10T08:14:25+01:00
; #@! TF.GenerationSoftware,Kicad,Pcbnew,9.0.4
; #@! TF.FileFunction,Plated,1,2,PTH
FMAT,2
METRIC
; #@! TA.AperFunction,Plated,PTH,ViaDrill
T1C0.400
; #@! TA.AperFunction,Plated,PTH,ComponentDrill
T2C1.000
%
G90
G05
T1
X28.58Y-47.239
X29.845Y-33.02
X30.48Y-39.28
X31.75Y-48.895
X32.258Y-47.244
X32.766Y-41.402
X33.02Y-38.735
X33.02Y-40.005
X33.868Y-48.394
X37.084Y-39.878
X37.103Y-48.357
X37.38Y-42.083
X38.137Y-42.926
X39.116Y-48.895
X39.37Y-38.354
X41.405Y-41.802
X42.418Y-48.895
X42.455Y-42.497
X45.974Y-39.497
X47.154Y-32.382
T2
X25.4Y-27.94
X25.4Y-30.48
X25.4Y-33.02
X25.4Y-35.56
X25.4Y-38.1
X25.4Y-40.64
X25.4Y-43.18
X25.4Y-45.72
X25.4Y-48.26
X26.67Y-27.94
X26.67Y-30.48
X26.67Y-33.02
X26.67Y-35.56
X26.67Y-38.1
X26.67Y-40.64
X26.67Y-43.18
X26.67Y-45.72
X26.67Y-48.26
X49.53Y-27.94
X49.53Y-30.48
X49.53Y-33.02
X49.53Y-35.56
X49.53Y-38.1
X49.53Y-40.64
X49.53Y-43.18
X49.53Y-45.72
X49.53Y-48.26
X50.8Y-27.94
X50.8Y-30.48
X50.8Y-33.02
X50.8Y-35.56
X50.8Y-38.1
X50.8Y-40.64
X50.8Y-43.18
X50.8Y-45.72
X50.8Y-48.26
M30
