G04 #@! TF.GenerationSoftware,KiCad,Pcbnew,9.0.4*
G04 #@! TF.CreationDate,2025-11-10T08:14:31+01:00*
G04 #@! TF.ProjectId,CodecModule,436f6465-634d-46f6-9475-6c652e6b6963,rev?*
G04 #@! TF.SameCoordinates,Original*
G04 #@! TF.FileFunction,Copper,L2,Bot*
G04 #@! TF.FilePolarity,Positive*
%FSLAX46Y46*%
G04 Gerber Fmt 4.6, Leading zero omitted, Abs format (unit mm)*
G04 Created by KiCad (PCBNEW 9.0.4) date 2025-11-10 08:14:31*
%MOMM*%
%LPD*%
G01*
G04 APERTURE LIST*
G04 Aperture macros list*
%AMRoundRect*
0 Rectangle with rounded corners*
0 $1 Rounding radius*
0 $2 $3 $4 $5 $6 $7 $8 $9 X,Y pos of 4 corners*
0 Add a 4 corners polygon primitive as box body*
4,1,4,$2,$3,$4,$5,$6,$7,$8,$9,$2,$3,0*
0 Add four circle primitives for the rounded corners*
1,1,$1+$1,$2,$3*
1,1,$1+$1,$4,$5*
1,1,$1+$1,$6,$7*
1,1,$1+$1,$8,$9*
0 Add four rect primitives between the rounded corners*
20,1,$1+$1,$2,$3,$4,$5,0*
20,1,$1+$1,$4,$5,$6,$7,0*
20,1,$1+$1,$6,$7,$8,$9,0*
20,1,$1+$1,$8,$9,$2,$3,0*%
G04 Aperture macros list end*
G04 #@! TA.AperFunction,ComponentPad*
%ADD10R,1.700000X1.700000*%
G04 #@! TD*
G04 #@! TA.AperFunction,ComponentPad*
%ADD11RoundRect,0.425000X-0.425000X-0.425000X0.425000X-0.425000X0.425000X0.425000X-0.425000X0.425000X0*%
G04 #@! TD*
G04 #@! TA.AperFunction,ComponentPad*
%ADD12O,1.700000X1.700000*%
G04 #@! TD*
G04 #@! TA.AperFunction,ComponentPad*
%ADD13RoundRect,0.425000X0.425000X0.425000X-0.425000X0.425000X-0.425000X-0.425000X0.425000X-0.425000X0*%
G04 #@! TD*
G04 #@! TA.AperFunction,ViaPad*
%ADD14C,0.800000*%
G04 #@! TD*
G04 #@! TA.AperFunction,Conductor*
%ADD15C,0.350000*%
G04 #@! TD*
G04 #@! TA.AperFunction,Conductor*
%ADD16C,0.250000*%
G04 #@! TD*
G04 APERTURE END LIST*
D10*
X25600000Y-27940000D03*
D11*
X26670000Y-27940000D03*
D10*
X25600000Y-30480000D03*
D12*
X26670000Y-30480000D03*
D10*
X25600000Y-33020000D03*
D12*
X26670000Y-33020000D03*
D10*
X25600000Y-35560000D03*
D12*
X26670000Y-35560000D03*
D10*
X25600000Y-38100000D03*
D12*
X26670000Y-38100000D03*
D10*
X25600000Y-40640000D03*
D12*
X26670000Y-40640000D03*
D10*
X25600000Y-43180000D03*
D12*
X26670000Y-43180000D03*
D10*
X25600000Y-45720000D03*
D12*
X26670000Y-45720000D03*
D10*
X25600000Y-48260000D03*
D12*
X26670000Y-48260000D03*
D10*
X50600000Y-48260000D03*
D13*
X49530000Y-48260000D03*
D10*
X50600000Y-45720000D03*
D12*
X49530000Y-45720000D03*
D10*
X50600000Y-43180000D03*
D12*
X49530000Y-43180000D03*
D10*
X50600000Y-40640000D03*
D12*
X49530000Y-40640000D03*
D10*
X50600000Y-38100000D03*
D12*
X49530000Y-38100000D03*
D10*
X50600000Y-35560000D03*
D12*
X49530000Y-35560000D03*
D10*
X50600000Y-33020000D03*
D12*
X49530000Y-33020000D03*
D10*
X50600000Y-30480000D03*
D12*
X49530000Y-30480000D03*
D10*
X50600000Y-27940000D03*
D12*
X49530000Y-27940000D03*
D14*
X45974000Y-39497000D03*
X42417997Y-48895003D03*
X31750000Y-48895000D03*
X32258000Y-47244000D03*
X29845000Y-33020000D03*
X33020000Y-38735000D03*
X30480000Y-39279990D03*
X39116000Y-48895000D03*
X37103498Y-48356773D03*
X33867870Y-48394373D03*
X47153990Y-32381726D03*
X28579660Y-47239340D03*
X42454990Y-42497014D03*
X38136992Y-42926000D03*
X37379505Y-42083205D03*
X41404869Y-41801980D03*
X32766000Y-41402000D03*
X33020000Y-40005000D03*
X37084000Y-39878000D03*
X39370000Y-38354000D03*
D15*
X47840000Y-43522000D02*
X47958000Y-43640000D01*
X47958000Y-43640000D02*
X50274990Y-43640000D01*
X47840000Y-41184000D02*
X47840000Y-43522000D01*
X28989315Y-33310000D02*
X25925010Y-33310000D01*
X50274990Y-33401000D02*
X49255716Y-32381726D01*
X47719675Y-32381726D02*
X47153990Y-32381726D01*
X49255716Y-32381726D02*
X47719675Y-32381726D01*
X29845000Y-33020000D02*
X29279315Y-33020000D01*
X29279315Y-33020000D02*
X28989315Y-33310000D01*
D16*
X42054991Y-42897013D02*
X42454990Y-42497014D01*
X38136992Y-42926000D02*
X42026004Y-42926000D01*
X42026004Y-42926000D02*
X42054991Y-42897013D01*
X41123644Y-42083205D02*
X41404869Y-41801980D01*
X37379505Y-42083205D02*
X41123644Y-42083205D01*
X32766000Y-41402000D02*
X26347010Y-41402000D01*
X26347010Y-41402000D02*
X25875010Y-40930000D01*
X33020000Y-40005000D02*
X32620001Y-40404999D01*
X26416000Y-38100000D02*
X25875010Y-38100000D01*
X32620001Y-40404999D02*
X28720999Y-40404999D01*
X28720999Y-40404999D02*
X26416000Y-38100000D01*
X38804315Y-38354000D02*
X39370000Y-38354000D01*
X37084000Y-39878000D02*
X38608000Y-38354000D01*
X38608000Y-38354000D02*
X38804315Y-38354000D01*
G04 #@! TA.AperFunction,Conductor*
G36*
X50591621Y-25570502D02*
G01*
X50638114Y-25624158D01*
X50649500Y-25676500D01*
X50649500Y-26455500D01*
X50629498Y-26523621D01*
X50575842Y-26570114D01*
X50523500Y-26581500D01*
X49701362Y-26581500D01*
X49701357Y-26581500D01*
X49701345Y-26581501D01*
X49679615Y-26583837D01*
X49646444Y-26583009D01*
X49644553Y-26582709D01*
X49636916Y-26581500D01*
X49423084Y-26581500D01*
X49211884Y-26614951D01*
X49211878Y-26614952D01*
X49008521Y-26681026D01*
X49008515Y-26681029D01*
X48817987Y-26778108D01*
X48644993Y-26903796D01*
X48644990Y-26903798D01*
X48493798Y-27054990D01*
X48493796Y-27054993D01*
X48368108Y-27227987D01*
X48271029Y-27418515D01*
X48271026Y-27418521D01*
X48204952Y-27621878D01*
X48204951Y-27621883D01*
X48204951Y-27621884D01*
X48171500Y-27833084D01*
X48171500Y-28046916D01*
X48204951Y-28258116D01*
X48204952Y-28258121D01*
X48260908Y-28430337D01*
X48271028Y-28461483D01*
X48368106Y-28652009D01*
X48493794Y-28825004D01*
X48493796Y-28825006D01*
X48493798Y-28825009D01*
X48644990Y-28976201D01*
X48644993Y-28976203D01*
X48644996Y-28976206D01*
X48817991Y-29101894D01*
X48817996Y-29101896D01*
X48819088Y-29102566D01*
X48819418Y-29102931D01*
X48821996Y-29104804D01*
X48821602Y-29105345D01*
X48866721Y-29155213D01*
X48878328Y-29225255D01*
X48850226Y-29290453D01*
X48821870Y-29315023D01*
X48821996Y-29315196D01*
X48819982Y-29316658D01*
X48819088Y-29317434D01*
X48817987Y-29318108D01*
X48644993Y-29443796D01*
X48644990Y-29443798D01*
X48493798Y-29594990D01*
X48493796Y-29594993D01*
X48368108Y-29767987D01*
X48271029Y-29958515D01*
X48271026Y-29958521D01*
X48204952Y-30161878D01*
X48204951Y-30161883D01*
X48204951Y-30161884D01*
X48171500Y-30373084D01*
X48171500Y-30586916D01*
X48204951Y-30798116D01*
X48204952Y-30798121D01*
X48271026Y-31001478D01*
X48271028Y-31001483D01*
X48368106Y-31192009D01*
X48493794Y-31365004D01*
X48493796Y-31365006D01*
X48493798Y-31365009D01*
X48644990Y-31516201D01*
X48644993Y-31516203D01*
X48644996Y-31516206D01*
X48817991Y-31641894D01*
X48818001Y-31641899D01*
X48819567Y-31642859D01*
X48820042Y-31643384D01*
X48821996Y-31644804D01*
X48821697Y-31645214D01*
X48867200Y-31695505D01*
X48878808Y-31765546D01*
X48850707Y-31830745D01*
X48822157Y-31855485D01*
X48822258Y-31855624D01*
X48820644Y-31856796D01*
X48819574Y-31857724D01*
X48818255Y-31858532D01*
X48645320Y-31984177D01*
X48494177Y-32135320D01*
X48368536Y-32308249D01*
X48271493Y-32498707D01*
X48271490Y-32498713D01*
X48205440Y-32701995D01*
X48195302Y-32766000D01*
X49099297Y-32766000D01*
X49064075Y-32827007D01*
X49030000Y-32954174D01*
X49030000Y-33085826D01*
X49064075Y-33212993D01*
X49099297Y-33274000D01*
X48195302Y-33274000D01*
X48205440Y-33338004D01*
X48271490Y-33541286D01*
X48271493Y-33541292D01*
X48368536Y-33731750D01*
X48494177Y-33904679D01*
X48645320Y-34055822D01*
X48818244Y-34181460D01*
X48819560Y-34182266D01*
X48819955Y-34182703D01*
X48822258Y-34184376D01*
X48821906Y-34184859D01*
X48867196Y-34234910D01*
X48878809Y-34304950D01*
X48850712Y-34370150D01*
X48821925Y-34395098D01*
X48821996Y-34395196D01*
X48820862Y-34396019D01*
X48819580Y-34397131D01*
X48817998Y-34398100D01*
X48644993Y-34523796D01*
X48644990Y-34523798D01*
X48493798Y-34674990D01*
X48493796Y-34674993D01*
X48368108Y-34847987D01*
X48271029Y-35038515D01*
X48271026Y-35038521D01*
X48204952Y-35241878D01*
X48204951Y-35241883D01*
X48204951Y-35241884D01*
X48171500Y-35453084D01*
X48171500Y-35666916D01*
X48204951Y-35878116D01*
X48204952Y-35878121D01*
X48271026Y-36081478D01*
X48271028Y-36081483D01*
X48368106Y-36272009D01*
X48493794Y-36445004D01*
X48493796Y-36445006D01*
X48493798Y-36445009D01*
X48644990Y-36596201D01*
X48644993Y-36596203D01*
X48644996Y-36596206D01*
X48817991Y-36721894D01*
X48817996Y-36721896D01*
X48819088Y-36722566D01*
X48819418Y-36722931D01*
X48821996Y-36724804D01*
X48821602Y-36725345D01*
X48866721Y-36775213D01*
X48878328Y-36845255D01*
X48850226Y-36910453D01*
X48821870Y-36935023D01*
X48821996Y-36935196D01*
X48819982Y-36936658D01*
X48819088Y-36937434D01*
X48817987Y-36938108D01*
X48644993Y-37063796D01*
X48644990Y-37063798D01*
X48493798Y-37214990D01*
X48493796Y-37214993D01*
X48368108Y-37387987D01*
X48271029Y-37578515D01*
X48271026Y-37578521D01*
X48204952Y-37781878D01*
X48204951Y-37781883D01*
X48204951Y-37781884D01*
X48171500Y-37993084D01*
X48171500Y-38206916D01*
X48180624Y-38264521D01*
X48204952Y-38418121D01*
X48271026Y-38621478D01*
X48271028Y-38621483D01*
X48368106Y-38812009D01*
X48493794Y-38985004D01*
X48493796Y-38985006D01*
X48493798Y-38985009D01*
X48644990Y-39136201D01*
X48644993Y-39136203D01*
X48644996Y-39136206D01*
X48817991Y-39261894D01*
X48817996Y-39261896D01*
X48819088Y-39262566D01*
X48819418Y-39262931D01*
X48821996Y-39264804D01*
X48821602Y-39265345D01*
X48866721Y-39315213D01*
X48878328Y-39385255D01*
X48850226Y-39450453D01*
X48821870Y-39475023D01*
X48821996Y-39475196D01*
X48819982Y-39476658D01*
X48819088Y-39477434D01*
X48817987Y-39478108D01*
X48644993Y-39603796D01*
X48644990Y-39603798D01*
X48493798Y-39754990D01*
X48493796Y-39754993D01*
X48368108Y-39927987D01*
X48271029Y-40118515D01*
X48271026Y-40118521D01*
X48204952Y-40321878D01*
X48204951Y-40321883D01*
X48204951Y-40321884D01*
X48171500Y-40533084D01*
X48171500Y-40746916D01*
X48204951Y-40958116D01*
X48204952Y-40958121D01*
X48263073Y-41137000D01*
X48271028Y-41161483D01*
X48368106Y-41352009D01*
X48493794Y-41525004D01*
X48493796Y-41525006D01*
X48493798Y-41525009D01*
X48644990Y-41676201D01*
X48644993Y-41676203D01*
X48644996Y-41676206D01*
X48817991Y-41801894D01*
X48818001Y-41801899D01*
X48819567Y-41802859D01*
X48820042Y-41803384D01*
X48821996Y-41804804D01*
X48821697Y-41805214D01*
X48867200Y-41855505D01*
X48878808Y-41925546D01*
X48850707Y-41990745D01*
X48822157Y-42015485D01*
X48822258Y-42015624D01*
X48820644Y-42016796D01*
X48819574Y-42017724D01*
X48818255Y-42018532D01*
X48645320Y-42144177D01*
X48494177Y-42295320D01*
X48368536Y-42468249D01*
X48271493Y-42658707D01*
X48271490Y-42658713D01*
X48205440Y-42861995D01*
X48195302Y-42926000D01*
X49099297Y-42926000D01*
X49064075Y-42987007D01*
X49030000Y-43114174D01*
X49030000Y-43245826D01*
X49064075Y-43372993D01*
X49099297Y-43434000D01*
X48195302Y-43434000D01*
X48205440Y-43498004D01*
X48271490Y-43701286D01*
X48271493Y-43701292D01*
X48368536Y-43891750D01*
X48494177Y-44064679D01*
X48645320Y-44215822D01*
X48818244Y-44341460D01*
X48819560Y-44342266D01*
X48819955Y-44342703D01*
X48822258Y-44344376D01*
X48821906Y-44344859D01*
X48867196Y-44394910D01*
X48878809Y-44464950D01*
X48850712Y-44530150D01*
X48821925Y-44555098D01*
X48821996Y-44555196D01*
X48820862Y-44556019D01*
X48819580Y-44557131D01*
X48817998Y-44558100D01*
X48644993Y-44683796D01*
X48644990Y-44683798D01*
X48493798Y-44834990D01*
X48493796Y-44834993D01*
X48368108Y-45007987D01*
X48271029Y-45198515D01*
X48271026Y-45198521D01*
X48204952Y-45401878D01*
X48204951Y-45401883D01*
X48204951Y-45401884D01*
X48171500Y-45613084D01*
X48171500Y-45826916D01*
X48204951Y-46038116D01*
X48204952Y-46038121D01*
X48271026Y-46241478D01*
X48271028Y-46241483D01*
X48368106Y-46432009D01*
X48493794Y-46605004D01*
X48493796Y-46605006D01*
X48493798Y-46605009D01*
X48644990Y-46756201D01*
X48644993Y-46756203D01*
X48644996Y-46756206D01*
X48693434Y-46791398D01*
X48736788Y-46847620D01*
X48742863Y-46918356D01*
X48709732Y-46981148D01*
X48676577Y-47005600D01*
X48593784Y-47047785D01*
X48593771Y-47047793D01*
X48441279Y-47171279D01*
X48317793Y-47323771D01*
X48317788Y-47323780D01*
X48228701Y-47498622D01*
X48215474Y-47547987D01*
X48177914Y-47688164D01*
X48173951Y-47738521D01*
X48171500Y-47769666D01*
X48171500Y-48750335D01*
X48177913Y-48831834D01*
X48177914Y-48831836D01*
X48228702Y-49021379D01*
X48291694Y-49145006D01*
X48317788Y-49196219D01*
X48317793Y-49196228D01*
X48441279Y-49348720D01*
X48593771Y-49472206D01*
X48593776Y-49472209D01*
X48593779Y-49472211D01*
X48768621Y-49561298D01*
X48958164Y-49612086D01*
X49039663Y-49618500D01*
X49696876Y-49618499D01*
X49696904Y-49618500D01*
X49701362Y-49618500D01*
X50523500Y-49618500D01*
X50591621Y-49638502D01*
X50638114Y-49692158D01*
X50649500Y-49744500D01*
X50649500Y-50523500D01*
X50629498Y-50591621D01*
X50575842Y-50638114D01*
X50523500Y-50649500D01*
X25676500Y-50649500D01*
X25608379Y-50629498D01*
X25561886Y-50575842D01*
X25550500Y-50523500D01*
X25550500Y-49744500D01*
X25570502Y-49676379D01*
X25624158Y-49629886D01*
X25676500Y-49618500D01*
X26498636Y-49618500D01*
X26498638Y-49618500D01*
X26520379Y-49616162D01*
X26553564Y-49616991D01*
X26563084Y-49618500D01*
X26563089Y-49618500D01*
X26776913Y-49618500D01*
X26776916Y-49618500D01*
X26988116Y-49585049D01*
X27191483Y-49518972D01*
X27382009Y-49421894D01*
X27555004Y-49296206D01*
X27706206Y-49145004D01*
X27831894Y-48972009D01*
X27928972Y-48781483D01*
X27995049Y-48578116D01*
X28028500Y-48366916D01*
X28028500Y-48153084D01*
X27995049Y-47941884D01*
X27928972Y-47738517D01*
X27831894Y-47547991D01*
X27706206Y-47374996D01*
X27706203Y-47374993D01*
X27706201Y-47374990D01*
X27555009Y-47223798D01*
X27555006Y-47223796D01*
X27555004Y-47223794D01*
X27382009Y-47098106D01*
X27382007Y-47098105D01*
X27380920Y-47097439D01*
X27380591Y-47097075D01*
X27378004Y-47095196D01*
X27378398Y-47094652D01*
X27333283Y-47044796D01*
X27321670Y-46974756D01*
X27349766Y-46909555D01*
X27378130Y-46884978D01*
X27378004Y-46884804D01*
X27380030Y-46883331D01*
X27380920Y-46882561D01*
X27381997Y-46881899D01*
X27382009Y-46881894D01*
X27555004Y-46756206D01*
X27706206Y-46605004D01*
X27831894Y-46432009D01*
X27928972Y-46241483D01*
X27995049Y-46038116D01*
X28028500Y-45826916D01*
X28028500Y-45613084D01*
X27995049Y-45401884D01*
X27928972Y-45198517D01*
X27831894Y-45007991D01*
X27706206Y-44834996D01*
X27706203Y-44834993D01*
X27706201Y-44834990D01*
X27555009Y-44683798D01*
X27555006Y-44683796D01*
X27555004Y-44683794D01*
X27382009Y-44558106D01*
X27382007Y-44558105D01*
X27380920Y-44557439D01*
X27380591Y-44557075D01*
X27378004Y-44555196D01*
X27378398Y-44554652D01*
X27333283Y-44504796D01*
X27321670Y-44434756D01*
X27349766Y-44369555D01*
X27378130Y-44344978D01*
X27378004Y-44344804D01*
X27380030Y-44343331D01*
X27380920Y-44342561D01*
X27381997Y-44341899D01*
X27382009Y-44341894D01*
X27555004Y-44216206D01*
X27706206Y-44065004D01*
X27831894Y-43892009D01*
X27928972Y-43701483D01*
X27995049Y-43498116D01*
X28028500Y-43286916D01*
X28028500Y-43073084D01*
X27995049Y-42861884D01*
X27928972Y-42658517D01*
X27831894Y-42467991D01*
X27706206Y-42294996D01*
X27706203Y-42294993D01*
X27706201Y-42294990D01*
X27661806Y-42250595D01*
X27627780Y-42188283D01*
X27632845Y-42117468D01*
X27675392Y-42060632D01*
X27741912Y-42035821D01*
X27750901Y-42035500D01*
X32062497Y-42035500D01*
X32130618Y-42055502D01*
X32151592Y-42072405D01*
X32186865Y-42107678D01*
X32335664Y-42207102D01*
X32501000Y-42275587D01*
X32676521Y-42310500D01*
X32676522Y-42310500D01*
X32855478Y-42310500D01*
X32855479Y-42310500D01*
X33031000Y-42275587D01*
X33196336Y-42207102D01*
X33345135Y-42107678D01*
X33459090Y-41993723D01*
X36471005Y-41993723D01*
X36471005Y-42172686D01*
X36482806Y-42232014D01*
X36505918Y-42348205D01*
X36574403Y-42513541D01*
X36673827Y-42662340D01*
X36800370Y-42788883D01*
X36949169Y-42888307D01*
X37114505Y-42956792D01*
X37138459Y-42961556D01*
X37201368Y-42994463D01*
X37236501Y-43056157D01*
X37237457Y-43060553D01*
X37240560Y-43076151D01*
X37263405Y-43191000D01*
X37331890Y-43356336D01*
X37431314Y-43505135D01*
X37557857Y-43631678D01*
X37706656Y-43731102D01*
X37871992Y-43799587D01*
X38047513Y-43834500D01*
X38047514Y-43834500D01*
X38226470Y-43834500D01*
X38226471Y-43834500D01*
X38401992Y-43799587D01*
X38567328Y-43731102D01*
X38716127Y-43631678D01*
X38751400Y-43596405D01*
X38813712Y-43562379D01*
X38840495Y-43559500D01*
X42088397Y-43559500D01*
X42088398Y-43559500D01*
X42210789Y-43535155D01*
X42326079Y-43487400D01*
X42405998Y-43434000D01*
X42416850Y-43426749D01*
X42484603Y-43405534D01*
X42486852Y-43405514D01*
X42544468Y-43405514D01*
X42544469Y-43405514D01*
X42719990Y-43370601D01*
X42885326Y-43302116D01*
X43034125Y-43202692D01*
X43160668Y-43076149D01*
X43260092Y-42927350D01*
X43328577Y-42762014D01*
X43363490Y-42586493D01*
X43363490Y-42407535D01*
X43328577Y-42232014D01*
X43260092Y-42066678D01*
X43160668Y-41917879D01*
X43034125Y-41791336D01*
X42885326Y-41691912D01*
X42768419Y-41643487D01*
X42719993Y-41623428D01*
X42719991Y-41623427D01*
X42719990Y-41623427D01*
X42631635Y-41605852D01*
X42544471Y-41588514D01*
X42544469Y-41588514D01*
X42383993Y-41588514D01*
X42315872Y-41568512D01*
X42269379Y-41514856D01*
X42267584Y-41510733D01*
X42264823Y-41504067D01*
X42209971Y-41371644D01*
X42110547Y-41222845D01*
X41984004Y-41096302D01*
X41835205Y-40996878D01*
X41718298Y-40948453D01*
X41669872Y-40928394D01*
X41669870Y-40928393D01*
X41669869Y-40928393D01*
X41572112Y-40908948D01*
X41494350Y-40893480D01*
X41494348Y-40893480D01*
X41315390Y-40893480D01*
X41315387Y-40893480D01*
X41184640Y-40919487D01*
X41139869Y-40928393D01*
X41139868Y-40928393D01*
X41139865Y-40928394D01*
X40974531Y-40996879D01*
X40825738Y-41096299D01*
X40825731Y-41096304D01*
X40699193Y-41222842D01*
X40699188Y-41222849D01*
X40599768Y-41371641D01*
X40599768Y-41371642D01*
X40599767Y-41371644D01*
X40599653Y-41371917D01*
X40599556Y-41372038D01*
X40596848Y-41377105D01*
X40595887Y-41376591D01*
X40555110Y-41427199D01*
X40487748Y-41449624D01*
X40483243Y-41449705D01*
X38083008Y-41449705D01*
X38014887Y-41429703D01*
X37993913Y-41412800D01*
X37958642Y-41377529D01*
X37958640Y-41377527D01*
X37809841Y-41278103D01*
X37676430Y-41222842D01*
X37644508Y-41209619D01*
X37644506Y-41209618D01*
X37644505Y-41209618D01*
X37556150Y-41192043D01*
X37468986Y-41174705D01*
X37468984Y-41174705D01*
X37290026Y-41174705D01*
X37290023Y-41174705D01*
X37159276Y-41200712D01*
X37114505Y-41209618D01*
X37114504Y-41209618D01*
X37114501Y-41209619D01*
X36949167Y-41278104D01*
X36800374Y-41377524D01*
X36800367Y-41377529D01*
X36673829Y-41504067D01*
X36673824Y-41504074D01*
X36594075Y-41623428D01*
X36574403Y-41652869D01*
X36564738Y-41676203D01*
X36505919Y-41818201D01*
X36505918Y-41818204D01*
X36505918Y-41818205D01*
X36498945Y-41853261D01*
X36471005Y-41993723D01*
X33459090Y-41993723D01*
X33471678Y-41981135D01*
X33571102Y-41832336D01*
X33639587Y-41667000D01*
X33674500Y-41491479D01*
X33674500Y-41312521D01*
X33639587Y-41137000D01*
X33571102Y-40971664D01*
X33529195Y-40908946D01*
X33507981Y-40841195D01*
X33526764Y-40772728D01*
X33563957Y-40734182D01*
X33599135Y-40710678D01*
X33725678Y-40584135D01*
X33825102Y-40435336D01*
X33893587Y-40270000D01*
X33928500Y-40094479D01*
X33928500Y-39915521D01*
X33903238Y-39788518D01*
X36175500Y-39788518D01*
X36175500Y-39788521D01*
X36175500Y-39967479D01*
X36210413Y-40143000D01*
X36278898Y-40308336D01*
X36378322Y-40457135D01*
X36504865Y-40583678D01*
X36653664Y-40683102D01*
X36819000Y-40751587D01*
X36994521Y-40786500D01*
X36994522Y-40786500D01*
X37173478Y-40786500D01*
X37173479Y-40786500D01*
X37349000Y-40751587D01*
X37514336Y-40683102D01*
X37663135Y-40583678D01*
X37789678Y-40457135D01*
X37889102Y-40308336D01*
X37957587Y-40143000D01*
X37992500Y-39967479D01*
X37992500Y-39917594D01*
X38012502Y-39849473D01*
X38029405Y-39828499D01*
X38722159Y-39135745D01*
X38784471Y-39101719D01*
X38855286Y-39106784D01*
X38881255Y-39120074D01*
X38939664Y-39159102D01*
X39105000Y-39227587D01*
X39280521Y-39262500D01*
X39280522Y-39262500D01*
X39459478Y-39262500D01*
X39459479Y-39262500D01*
X39635000Y-39227587D01*
X39800336Y-39159102D01*
X39949135Y-39059678D01*
X40075678Y-38933135D01*
X40175102Y-38784336D01*
X40243587Y-38619000D01*
X40278500Y-38443479D01*
X40278500Y-38264521D01*
X40243587Y-38089000D01*
X40175102Y-37923664D01*
X40075678Y-37774865D01*
X39949135Y-37648322D01*
X39800336Y-37548898D01*
X39683429Y-37500473D01*
X39635003Y-37480414D01*
X39635001Y-37480413D01*
X39635000Y-37480413D01*
X39546645Y-37462838D01*
X39459481Y-37445500D01*
X39459479Y-37445500D01*
X39280521Y-37445500D01*
X39280518Y-37445500D01*
X39149771Y-37471507D01*
X39105000Y-37480413D01*
X39104999Y-37480413D01*
X39104996Y-37480414D01*
X38939662Y-37548899D01*
X38790869Y-37648319D01*
X38790862Y-37648324D01*
X38755592Y-37683595D01*
X38693280Y-37717621D01*
X38666497Y-37720500D01*
X38545603Y-37720500D01*
X38454432Y-37738635D01*
X38423215Y-37744845D01*
X38423214Y-37744845D01*
X38423211Y-37744846D01*
X38333796Y-37781884D01*
X38333796Y-37781883D01*
X38307930Y-37792597D01*
X38307925Y-37792599D01*
X38204171Y-37861926D01*
X38204164Y-37861931D01*
X37133501Y-38932595D01*
X37071189Y-38966621D01*
X37044406Y-38969500D01*
X36994518Y-38969500D01*
X36863771Y-38995507D01*
X36819000Y-39004413D01*
X36818999Y-39004413D01*
X36818996Y-39004414D01*
X36653662Y-39072899D01*
X36504869Y-39172319D01*
X36504862Y-39172324D01*
X36378324Y-39298862D01*
X36378319Y-39298869D01*
X36278899Y-39447662D01*
X36210414Y-39612996D01*
X36175500Y-39788518D01*
X33903238Y-39788518D01*
X33893587Y-39740000D01*
X33825102Y-39574664D01*
X33725678Y-39425865D01*
X33599135Y-39299322D01*
X33450336Y-39199898D01*
X33333429Y-39151473D01*
X33285003Y-39131414D01*
X33285001Y-39131413D01*
X33285000Y-39131413D01*
X33161181Y-39106784D01*
X33109481Y-39096500D01*
X33109479Y-39096500D01*
X32930521Y-39096500D01*
X32930518Y-39096500D01*
X32812000Y-39120075D01*
X32755000Y-39131413D01*
X32754999Y-39131413D01*
X32754996Y-39131414D01*
X32589662Y-39199899D01*
X32440869Y-39299319D01*
X32440862Y-39299324D01*
X32314324Y-39425862D01*
X32314319Y-39425869D01*
X32214899Y-39574662D01*
X32165584Y-39693718D01*
X32121035Y-39748998D01*
X32053672Y-39771419D01*
X32049175Y-39771499D01*
X29035593Y-39771499D01*
X28967472Y-39751497D01*
X28946498Y-39734594D01*
X27960128Y-38748224D01*
X27926102Y-38685912D01*
X27929389Y-38620197D01*
X27995049Y-38418116D01*
X28028500Y-38206916D01*
X28028500Y-37993084D01*
X27995049Y-37781884D01*
X27928972Y-37578517D01*
X27831894Y-37387991D01*
X27706206Y-37214996D01*
X27706203Y-37214993D01*
X27706201Y-37214990D01*
X27555009Y-37063798D01*
X27555006Y-37063796D01*
X27555004Y-37063794D01*
X27382009Y-36938106D01*
X27382007Y-36938105D01*
X27380920Y-36937439D01*
X27380591Y-36937075D01*
X27378004Y-36935196D01*
X27378398Y-36934652D01*
X27333283Y-36884796D01*
X27321670Y-36814756D01*
X27349766Y-36749555D01*
X27378130Y-36724978D01*
X27378004Y-36724804D01*
X27380030Y-36723331D01*
X27380920Y-36722561D01*
X27381997Y-36721899D01*
X27382009Y-36721894D01*
X27555004Y-36596206D01*
X27706206Y-36445004D01*
X27831894Y-36272009D01*
X27928972Y-36081483D01*
X27995049Y-35878116D01*
X28028500Y-35666916D01*
X28028500Y-35453084D01*
X27995049Y-35241884D01*
X27928972Y-35038517D01*
X27831894Y-34847991D01*
X27706206Y-34674996D01*
X27706203Y-34674993D01*
X27706201Y-34674990D01*
X27555009Y-34523798D01*
X27555006Y-34523796D01*
X27555004Y-34523794D01*
X27472424Y-34463796D01*
X27382006Y-34398103D01*
X27380427Y-34397136D01*
X27379952Y-34396611D01*
X27378004Y-34395196D01*
X27378301Y-34394786D01*
X27332797Y-34344488D01*
X27321191Y-34274446D01*
X27349296Y-34209249D01*
X27377844Y-34184516D01*
X27377742Y-34184376D01*
X27379382Y-34183184D01*
X27380448Y-34182261D01*
X27381754Y-34181460D01*
X27554679Y-34055822D01*
X27705822Y-33904679D01*
X27831463Y-33731750D01*
X27928506Y-33541292D01*
X27928509Y-33541286D01*
X27994559Y-33338004D01*
X28004698Y-33274000D01*
X27100703Y-33274000D01*
X27135925Y-33212993D01*
X27170000Y-33085826D01*
X27170000Y-32954174D01*
X27135925Y-32827007D01*
X27100703Y-32766000D01*
X28004697Y-32766000D01*
X27994559Y-32701995D01*
X27928509Y-32498713D01*
X27928506Y-32498707D01*
X27831463Y-32308249D01*
X27705822Y-32135320D01*
X27554679Y-31984177D01*
X27381749Y-31858535D01*
X27380433Y-31857729D01*
X27380037Y-31857291D01*
X27377742Y-31855624D01*
X27378092Y-31855141D01*
X27332800Y-31805084D01*
X27321190Y-31735043D01*
X27349291Y-31669844D01*
X27378076Y-31644903D01*
X27378004Y-31644804D01*
X27379158Y-31643965D01*
X27380441Y-31642854D01*
X27381992Y-31641902D01*
X27382009Y-31641894D01*
X27555004Y-31516206D01*
X27706206Y-31365004D01*
X27831894Y-31192009D01*
X27928972Y-31001483D01*
X27995049Y-30798116D01*
X28028500Y-30586916D01*
X28028500Y-30373084D01*
X27995049Y-30161884D01*
X27928972Y-29958517D01*
X27831894Y-29767991D01*
X27706206Y-29594996D01*
X27706203Y-29594993D01*
X27706201Y-29594990D01*
X27555006Y-29443795D01*
X27506565Y-29408601D01*
X27463211Y-29352378D01*
X27457136Y-29281642D01*
X27490268Y-29218851D01*
X27523422Y-29194399D01*
X27606221Y-29152211D01*
X27606225Y-29152207D01*
X27606228Y-29152206D01*
X27758720Y-29028720D01*
X27882206Y-28876228D01*
X27882207Y-28876225D01*
X27882211Y-28876221D01*
X27971298Y-28701379D01*
X28022086Y-28511836D01*
X28028500Y-28430337D01*
X28028499Y-27449664D01*
X28022086Y-27368164D01*
X27971298Y-27178621D01*
X27882211Y-27003779D01*
X27882209Y-27003776D01*
X27882206Y-27003771D01*
X27758720Y-26851279D01*
X27606228Y-26727793D01*
X27606219Y-26727788D01*
X27431377Y-26638701D01*
X27298147Y-26603002D01*
X27241836Y-26587914D01*
X27160337Y-26581500D01*
X27160334Y-26581500D01*
X25676500Y-26581500D01*
X25608379Y-26561498D01*
X25561886Y-26507842D01*
X25550500Y-26455500D01*
X25550500Y-25676500D01*
X25570502Y-25608379D01*
X25624158Y-25561886D01*
X25676500Y-25550500D01*
X50523500Y-25550500D01*
X50591621Y-25570502D01*
G37*
G04 #@! TD.AperFunction*
M02*
