G04 #@! TF.GenerationSoftware,KiCad,Pcbnew,9.0.4*
G04 #@! TF.CreationDate,2025-11-10T08:14:31+01:00*
G04 #@! TF.ProjectId,CodecModule,436f6465-634d-46f6-9475-6c652e6b6963,rev?*
G04 #@! TF.SameCoordinates,Original*
G04 #@! TF.FileFunction,Copper,L1,Top*
G04 #@! TF.FilePolarity,Positive*
%FSLAX46Y46*%
G04 Gerber Fmt 4.6, Leading zero omitted, Abs format (unit mm)*
G04 Created by KiCad (PCBNEW 9.0.4) date 2025-11-10 08:14:31*
%MOMM*%
%LPD*%
G01*
G04 APERTURE LIST*
G04 Aperture macros list*
%AMRoundRect*
0 Rectangle with rounded corners*
0 $1 Rounding radius*
0 $2 $3 $4 $5 $6 $7 $8 $9 X,Y pos of 4 corners*
0 Add a 4 corners polygon primitive as box body*
4,1,4,$2,$3,$4,$5,$6,$7,$8,$9,$2,$3,0*
0 Add four circle primitives for the rounded corners*
1,1,$1+$1,$2,$3*
1,1,$1+$1,$4,$5*
1,1,$1+$1,$6,$7*
1,1,$1+$1,$8,$9*
0 Add four rect primitives between the rounded corners*
20,1,$1+$1,$2,$3,$4,$5,0*
20,1,$1+$1,$4,$5,$6,$7,0*
20,1,$1+$1,$6,$7,$8,$9,0*
20,1,$1+$1,$8,$9,$2,$3,0*%
G04 Aperture macros list end*
G04 #@! TA.AperFunction,SMDPad,CuDef*
%ADD10RoundRect,0.237500X0.287500X0.237500X-0.287500X0.237500X-0.287500X-0.237500X0.287500X-0.237500X0*%
G04 #@! TD*
G04 #@! TA.AperFunction,SMDPad,CuDef*
%ADD11RoundRect,0.250000X-0.550000X1.050000X-0.550000X-1.050000X0.550000X-1.050000X0.550000X1.050000X0*%
G04 #@! TD*
G04 #@! TA.AperFunction,SMDPad,CuDef*
%ADD12R,1.450000X0.450000*%
G04 #@! TD*
G04 #@! TA.AperFunction,SMDPad,CuDef*
%ADD13RoundRect,0.237500X-0.287500X-0.237500X0.287500X-0.237500X0.287500X0.237500X-0.287500X0.237500X0*%
G04 #@! TD*
G04 #@! TA.AperFunction,ComponentPad*
%ADD14R,1.700000X1.700000*%
G04 #@! TD*
G04 #@! TA.AperFunction,ComponentPad*
%ADD15RoundRect,0.425000X-0.425000X-0.425000X0.425000X-0.425000X0.425000X0.425000X-0.425000X0.425000X0*%
G04 #@! TD*
G04 #@! TA.AperFunction,ComponentPad*
%ADD16O,1.700000X1.700000*%
G04 #@! TD*
G04 #@! TA.AperFunction,ComponentPad*
%ADD17RoundRect,0.425000X0.425000X0.425000X-0.425000X0.425000X-0.425000X-0.425000X0.425000X-0.425000X0*%
G04 #@! TD*
G04 #@! TA.AperFunction,ViaPad*
%ADD18C,0.800000*%
G04 #@! TD*
G04 #@! TA.AperFunction,Conductor*
%ADD19C,0.350000*%
G04 #@! TD*
G04 #@! TA.AperFunction,Conductor*
%ADD20C,0.300000*%
G04 #@! TD*
G04 #@! TA.AperFunction,Conductor*
%ADD21C,0.250000*%
G04 #@! TD*
G04 APERTURE END LIST*
D10*
X31595000Y-36195000D03*
X29845000Y-36195000D03*
X31595000Y-38100000D03*
X29845000Y-38100000D03*
D11*
X35560000Y-43920000D03*
X35560000Y-47520000D03*
D12*
X35209000Y-34348000D03*
X35209000Y-34998000D03*
X35209000Y-35648000D03*
X35209000Y-36298000D03*
X35209000Y-36948000D03*
X35209000Y-37598000D03*
X35209000Y-38248000D03*
X35209000Y-38898000D03*
X35209000Y-39548000D03*
X35209000Y-40198000D03*
X41109000Y-40198000D03*
X41109000Y-39548000D03*
X41109000Y-38898000D03*
X41109000Y-38248000D03*
X41109000Y-37598000D03*
X41109000Y-36948000D03*
X41109000Y-36298000D03*
X41109000Y-35648000D03*
X41109000Y-34998000D03*
X41109000Y-34348000D03*
D11*
X40640000Y-44152000D03*
X40640000Y-47752000D03*
D10*
X31595000Y-34290000D03*
X29845000Y-34290000D03*
D11*
X30480000Y-42650000D03*
X30480000Y-46250000D03*
D10*
X30353000Y-48895000D03*
X28603000Y-48895000D03*
X46813000Y-42109000D03*
X45063000Y-42109000D03*
X46813000Y-43887000D03*
X45063000Y-43887000D03*
X46813000Y-45665000D03*
X45063000Y-45665000D03*
X46813000Y-47443000D03*
X45063000Y-47443000D03*
D13*
X45063000Y-49221000D03*
X46813000Y-49221000D03*
D10*
X46824000Y-38644000D03*
X45074000Y-38644000D03*
X46824000Y-36866000D03*
X45074000Y-36866000D03*
X46824000Y-35088000D03*
X45074000Y-35088000D03*
X46824000Y-33310000D03*
X45074000Y-33310000D03*
D11*
X40673332Y-27424000D03*
X40673332Y-31024000D03*
X45808000Y-27424000D03*
X45808000Y-31024000D03*
X30404000Y-27424000D03*
X30404000Y-31024000D03*
X35538666Y-27424000D03*
X35538666Y-31024000D03*
D14*
X25600000Y-27940000D03*
D15*
X26670000Y-27940000D03*
D14*
X25600000Y-30480000D03*
D16*
X26670000Y-30480000D03*
D14*
X25600000Y-33020000D03*
D16*
X26670000Y-33020000D03*
D14*
X25600000Y-35560000D03*
D16*
X26670000Y-35560000D03*
D14*
X25600000Y-38100000D03*
D16*
X26670000Y-38100000D03*
D14*
X25600000Y-40640000D03*
D16*
X26670000Y-40640000D03*
D14*
X25600000Y-43180000D03*
D16*
X26670000Y-43180000D03*
D14*
X25600000Y-45720000D03*
D16*
X26670000Y-45720000D03*
D14*
X25600000Y-48260000D03*
D16*
X26670000Y-48260000D03*
D14*
X50600000Y-48260000D03*
D17*
X49530000Y-48260000D03*
D14*
X50600000Y-45720000D03*
D16*
X49530000Y-45720000D03*
D14*
X50600000Y-43180000D03*
D16*
X49530000Y-43180000D03*
D14*
X50600000Y-40640000D03*
D16*
X49530000Y-40640000D03*
D14*
X50600000Y-38100000D03*
D16*
X49530000Y-38100000D03*
D14*
X50600000Y-35560000D03*
D16*
X49530000Y-35560000D03*
D14*
X50600000Y-33020000D03*
D16*
X49530000Y-33020000D03*
D14*
X50600000Y-30480000D03*
D16*
X49530000Y-30480000D03*
D14*
X50600000Y-27940000D03*
D16*
X49530000Y-27940000D03*
D13*
X45074000Y-40386000D03*
X46824000Y-40386000D03*
D18*
X45974000Y-39497000D03*
X42417997Y-48895003D03*
X31750000Y-48895000D03*
X32258000Y-47244000D03*
X29845000Y-33020000D03*
X33020000Y-38735000D03*
X30480000Y-39279990D03*
X39116000Y-48895000D03*
X37103498Y-48356773D03*
X33867870Y-48394373D03*
X47153990Y-32381726D03*
X28579660Y-47239340D03*
X42454990Y-42497014D03*
X38136992Y-42926000D03*
X37379505Y-42083205D03*
X41404869Y-41801980D03*
X32766000Y-41402000D03*
X33020000Y-40005000D03*
X37084000Y-39878000D03*
X39370000Y-38354000D03*
D19*
X31877000Y-42175068D02*
X31877000Y-38227000D01*
X35560000Y-44450000D02*
X34151932Y-44450000D01*
X31750000Y-36830000D02*
X31750000Y-37084000D01*
X31877000Y-38227000D02*
X31750000Y-38100000D01*
X35209000Y-36948000D02*
X31886000Y-36948000D01*
X31750000Y-38100000D02*
X31750000Y-37084000D01*
X31750000Y-36195000D02*
X31750000Y-36830000D01*
X34151932Y-44450000D02*
X31877000Y-42175068D01*
X31886000Y-36948000D02*
X31750000Y-37084000D01*
D20*
X46824000Y-40684500D02*
X46561500Y-40422000D01*
D19*
X33658988Y-35172988D02*
X33658988Y-34962766D01*
X30353000Y-48895000D02*
X31750000Y-48895000D01*
X32126330Y-47239340D02*
X29145345Y-47239340D01*
X35209000Y-38248000D02*
X33507000Y-38248000D01*
X46539685Y-39497000D02*
X46824000Y-39497000D01*
X30080001Y-38879991D02*
X30480000Y-39279990D01*
X37103498Y-48356773D02*
X36396773Y-48356773D01*
X32136212Y-33439990D02*
X30695010Y-33439990D01*
X29083000Y-47244000D02*
X29486000Y-47244000D01*
X41783003Y-48895003D02*
X40640000Y-47752000D01*
X30480000Y-46736000D02*
X30988010Y-47244010D01*
X33507000Y-38248000D02*
X33020000Y-38735000D01*
X35209000Y-35648000D02*
X34134000Y-35648000D01*
X46824000Y-32711716D02*
X47153990Y-32381726D01*
D20*
X46824000Y-39497000D02*
X46824000Y-40159500D01*
X46824000Y-40159500D02*
X46561500Y-40422000D01*
D19*
X29145345Y-47239340D02*
X28579660Y-47239340D01*
X36396773Y-48356773D02*
X35560000Y-47520000D01*
X30000000Y-38799990D02*
X30080001Y-38879991D01*
X30000000Y-38100000D02*
X30000000Y-38799990D01*
X31750000Y-47244010D02*
X31749990Y-47244000D01*
X33658988Y-34962766D02*
X32136212Y-33439990D01*
X29486000Y-47244000D02*
X30480000Y-46250000D01*
X33867870Y-48394373D02*
X34685627Y-48394373D01*
X30480000Y-46250000D02*
X30480000Y-46736000D01*
X46824000Y-33310000D02*
X46824000Y-32711716D01*
X39116000Y-48895000D02*
X39497000Y-48895000D01*
D20*
X46824000Y-38644000D02*
X46824000Y-39497000D01*
D19*
X34685627Y-48394373D02*
X35560000Y-47520000D01*
X39497000Y-48895000D02*
X40640000Y-47752000D01*
X45974000Y-39497000D02*
X46539685Y-39497000D01*
X32130990Y-47244000D02*
X32126330Y-47239340D01*
X30988010Y-47244010D02*
X31750000Y-47244010D01*
X29845000Y-34290000D02*
X29845000Y-33020000D01*
D20*
X39116000Y-48895000D02*
X40640000Y-48895000D01*
D19*
X30344072Y-33790928D02*
X29845000Y-34290000D01*
X42417997Y-48895003D02*
X41783003Y-48895003D01*
D20*
X40640000Y-48895000D02*
X42417994Y-48895000D01*
D19*
X34134000Y-35648000D02*
X33658988Y-35172988D01*
X30695010Y-33439990D02*
X30344072Y-33790928D01*
D20*
X46561500Y-40422000D02*
X46561500Y-40147479D01*
D19*
X36570000Y-37598000D02*
X36576000Y-37592000D01*
X27722000Y-35850000D02*
X25925010Y-35850000D01*
X29845000Y-36195000D02*
X27758120Y-36195000D01*
X36576000Y-37592000D02*
X36576000Y-36322000D01*
X35209000Y-36298000D02*
X33603000Y-36298000D01*
X29845000Y-36040000D02*
X31595000Y-34290000D01*
X35209000Y-37598000D02*
X36570000Y-37598000D01*
X30060000Y-41490000D02*
X28575000Y-40005000D01*
X33603000Y-36298000D02*
X31595000Y-34290000D01*
X36576000Y-36322000D02*
X36552000Y-36298000D01*
X27758120Y-35886120D02*
X27722000Y-35850000D01*
X31595000Y-34600000D02*
X31595000Y-34290000D01*
X29845000Y-36195000D02*
X29845000Y-36040000D01*
X30060000Y-41490000D02*
X30060000Y-43180000D01*
X28575000Y-40005000D02*
X28575000Y-37620000D01*
X27758120Y-36195000D02*
X27758120Y-35886120D01*
X36552000Y-36298000D02*
X35209000Y-36298000D01*
D21*
X34158999Y-34412999D02*
X31640710Y-31894710D01*
X31640710Y-31894710D02*
X31020710Y-31894710D01*
X31020710Y-31894710D02*
X30150000Y-31024000D01*
X34158999Y-34922999D02*
X34158999Y-34412999D01*
X34234000Y-34998000D02*
X34158999Y-34922999D01*
X35209000Y-34998000D02*
X34234000Y-34998000D01*
X42084000Y-39548000D02*
X42423946Y-39887946D01*
X42423946Y-41900285D02*
X42454990Y-41931329D01*
X37846000Y-48639590D02*
X37209590Y-49276000D01*
X37846000Y-45720000D02*
X37846000Y-48639590D01*
X28321000Y-48006000D02*
X26510010Y-46195010D01*
X32258000Y-48006000D02*
X28321000Y-48006000D01*
X41109000Y-39548000D02*
X42084000Y-39548000D01*
X37209590Y-49276000D02*
X33528000Y-49276000D01*
X42454990Y-41931329D02*
X42454990Y-42497014D01*
X38136992Y-45429008D02*
X37846000Y-45720000D01*
X33528000Y-49276000D02*
X32258000Y-48006000D01*
X38136992Y-42926000D02*
X38136992Y-45429008D01*
X26510010Y-46195010D02*
X25875010Y-46195010D01*
X42423946Y-39887946D02*
X42423946Y-41900285D01*
X41109000Y-41506111D02*
X41404869Y-41801980D01*
X36348180Y-45777010D02*
X33458010Y-45777010D01*
X37379505Y-44745685D02*
X36348180Y-45777010D01*
X27435010Y-43945010D02*
X25875010Y-43945010D01*
X33458010Y-45777010D02*
X32283990Y-44602990D01*
X37379505Y-42083205D02*
X37379505Y-44745685D01*
X32283990Y-44602990D02*
X28092990Y-44602990D01*
X41109000Y-40198000D02*
X40609000Y-40198000D01*
X28092990Y-44602990D02*
X27435010Y-43945010D01*
X41109000Y-40198000D02*
X41109000Y-41506111D01*
X33970000Y-40198000D02*
X33165999Y-41002001D01*
X33165999Y-41002001D02*
X32766000Y-41402000D01*
X35209000Y-40198000D02*
X33970000Y-40198000D01*
X35209000Y-39548000D02*
X33477000Y-39548000D01*
X33477000Y-39548000D02*
X33020000Y-40005000D01*
X28448000Y-49784000D02*
X37338000Y-49784000D01*
X28603000Y-48895000D02*
X28603000Y-49629000D01*
X38354000Y-48768000D02*
X38354000Y-46482000D01*
X26991919Y-49784000D02*
X26670000Y-49462081D01*
X38354000Y-46482000D02*
X38862000Y-45974000D01*
X41109000Y-36298000D02*
X40134000Y-36298000D01*
X38862000Y-45974000D02*
X38862000Y-42164000D01*
X26670000Y-48260000D02*
X25875010Y-48260000D01*
X38862000Y-42164000D02*
X37084000Y-40386000D01*
X40134000Y-36298000D02*
X39370000Y-37062000D01*
X37084000Y-40386000D02*
X37084000Y-39878000D01*
X28603000Y-49629000D02*
X28448000Y-49784000D01*
X39370000Y-37062000D02*
X39370000Y-37788315D01*
X26670000Y-49462081D02*
X26670000Y-48260000D01*
X39370000Y-37788315D02*
X39370000Y-38354000D01*
X28448000Y-49784000D02*
X26991919Y-49784000D01*
X37338000Y-49784000D02*
X38354000Y-48768000D01*
X49197000Y-28400000D02*
X50324990Y-28400000D01*
X47879000Y-34033000D02*
X47879000Y-29718000D01*
X47879000Y-29718000D02*
X49197000Y-28400000D01*
X46824000Y-35088000D02*
X47879000Y-34033000D01*
X48354999Y-33584001D02*
X48387000Y-33616002D01*
X46824000Y-36767721D02*
X46824000Y-36866000D01*
X48387000Y-34963998D02*
X48354999Y-34995999D01*
X48387000Y-33616002D02*
X48387000Y-34963998D01*
X48354999Y-34995999D02*
X48354999Y-35335001D01*
X49197000Y-30940000D02*
X48387000Y-31750000D01*
X50324990Y-30940000D02*
X49197000Y-30940000D01*
X48354999Y-32455999D02*
X48354999Y-33584001D01*
X48354999Y-35335001D02*
X46824000Y-36866000D01*
X48387000Y-32423998D02*
X48354999Y-32455999D01*
X48387000Y-31750000D02*
X48387000Y-32423998D01*
X48387000Y-44091000D02*
X48387000Y-43776002D01*
X48387000Y-43776002D02*
X48354999Y-43744001D01*
X46813000Y-45665000D02*
X48387000Y-44091000D01*
X49530000Y-40640000D02*
X49530000Y-41440998D01*
X49530000Y-41440998D02*
X48354999Y-42615999D01*
X48354999Y-42615999D02*
X48354999Y-42926000D01*
X50292000Y-40640000D02*
X50324990Y-40640000D01*
X48354999Y-43744001D02*
X48354999Y-42926000D01*
X48354999Y-42926000D02*
X48354999Y-42766999D01*
X47809989Y-41112011D02*
X47809989Y-36899011D01*
X46813000Y-42109000D02*
X47809989Y-41112011D01*
X47809989Y-36899011D02*
X49149000Y-35560000D01*
X49149000Y-35560000D02*
X50324990Y-35560000D01*
X46813000Y-43887000D02*
X47312072Y-43387928D01*
X48260000Y-42035590D02*
X48260000Y-39243000D01*
X47312072Y-43387928D02*
X47312072Y-42983518D01*
X48260000Y-39243000D02*
X49403000Y-38100000D01*
X49403000Y-38100000D02*
X50324990Y-38100000D01*
X47312072Y-42983518D02*
X48260000Y-42035590D01*
X48536000Y-45720000D02*
X50324990Y-45720000D01*
X46813000Y-47443000D02*
X48536000Y-45720000D01*
X48399000Y-48260000D02*
X50324990Y-48260000D01*
X47438000Y-49221000D02*
X48399000Y-48260000D01*
X46813000Y-49221000D02*
X47438000Y-49221000D01*
X37809002Y-40474591D02*
X39312011Y-41977600D01*
X37177004Y-38898000D02*
X37809002Y-39529998D01*
X37809002Y-39529998D02*
X37809002Y-40474591D01*
X41816000Y-45974000D02*
X45063000Y-49221000D01*
X40006411Y-45974000D02*
X41816000Y-45974000D01*
X39312011Y-41977600D02*
X39312011Y-45279600D01*
X39312011Y-45279600D02*
X40006411Y-45974000D01*
X35209000Y-38898000D02*
X37177004Y-38898000D01*
X42084000Y-38248000D02*
X42873957Y-39037957D01*
X42873957Y-40592189D02*
X43180000Y-40898232D01*
X43180000Y-43782000D02*
X44563928Y-45165928D01*
X41109000Y-38248000D02*
X42084000Y-38248000D01*
X44563928Y-45165928D02*
X45063000Y-45665000D01*
X42873957Y-39037957D02*
X42873957Y-40592189D01*
X43180000Y-40898232D02*
X43180000Y-43782000D01*
X41428180Y-42526990D02*
X40880222Y-42526990D01*
X40280004Y-38898000D02*
X41109000Y-38898000D01*
X40212033Y-41604800D02*
X39624000Y-41016767D01*
X40212033Y-41858801D02*
X40212033Y-41604800D01*
X39624000Y-41016767D02*
X39624000Y-39554004D01*
X45063000Y-47443000D02*
X41765010Y-44145010D01*
X40880222Y-42526990D02*
X40212033Y-41858801D01*
X41765010Y-44145010D02*
X41765010Y-42863820D01*
X41765010Y-42863820D02*
X41428180Y-42526990D01*
X39624000Y-39554004D02*
X40280004Y-38898000D01*
X35230000Y-27424000D02*
X33224000Y-27424000D01*
X31438000Y-29210000D02*
X28956000Y-29210000D01*
X27396000Y-30770000D02*
X25875010Y-30770000D01*
X33224000Y-27424000D02*
X31438000Y-29210000D01*
X28956000Y-29210000D02*
X27396000Y-30770000D01*
X28456000Y-27424000D02*
X27650000Y-28230000D01*
X30150000Y-27424000D02*
X28456000Y-27424000D01*
X27650000Y-28230000D02*
X25875010Y-28230000D01*
X40134000Y-34348000D02*
X38245989Y-32459989D01*
X38245989Y-32459989D02*
X38245989Y-28498011D01*
X38245989Y-28498011D02*
X39320000Y-27424000D01*
X41109000Y-34348000D02*
X40134000Y-34348000D01*
X39320000Y-27424000D02*
X40220000Y-27424000D01*
X35209000Y-34348000D02*
X35209000Y-31045000D01*
X35209000Y-34348000D02*
X35709000Y-34348000D01*
X35209000Y-31045000D02*
X35230000Y-31024000D01*
X41090710Y-31894710D02*
X40220000Y-31024000D01*
X45074000Y-38644000D02*
X45074000Y-36866000D01*
X42926000Y-33730000D02*
X41090710Y-31894710D01*
X42926000Y-34718000D02*
X42926000Y-33730000D01*
X45074000Y-36866000D02*
X42926000Y-34718000D01*
X42084000Y-34998000D02*
X42159001Y-34922999D01*
X44683290Y-28294710D02*
X45554000Y-27424000D01*
X42159001Y-33862999D02*
X41352002Y-33056000D01*
X41109000Y-34998000D02*
X42084000Y-34998000D01*
X43732000Y-29246000D02*
X44683290Y-28294710D01*
X39334000Y-29246000D02*
X43732000Y-29246000D01*
X42159001Y-34922999D02*
X42159001Y-33862999D01*
X39838810Y-33056000D02*
X38696000Y-31913190D01*
X41352002Y-33056000D02*
X39838810Y-33056000D01*
X38696000Y-31913190D02*
X38696000Y-29884000D01*
X38696000Y-29884000D02*
X39334000Y-29246000D01*
X45074000Y-31504000D02*
X45554000Y-31024000D01*
X44683290Y-32919290D02*
X45074000Y-33310000D01*
X45074000Y-35088000D02*
X45074000Y-33310000D01*
X45074000Y-33310000D02*
X45074000Y-31504000D01*
X41109000Y-35648000D02*
X40134000Y-35648000D01*
X38469978Y-37312022D02*
X38469978Y-40499157D01*
X39762022Y-41791200D02*
X39762022Y-43476022D01*
X39762022Y-43476022D02*
X40728000Y-44442000D01*
X44223990Y-39659490D02*
X44223990Y-37619990D01*
X40134000Y-35648000D02*
X38469978Y-37312022D01*
X38469978Y-40499157D02*
X39762022Y-41791200D01*
X44986500Y-40422000D02*
X44223990Y-39659490D01*
X44223990Y-37619990D02*
X42252000Y-35648000D01*
X42252000Y-35648000D02*
X41109000Y-35648000D01*
X41109000Y-36948000D02*
X42084000Y-36948000D01*
X43773979Y-38637979D02*
X43773979Y-40219389D01*
X42084000Y-36948000D02*
X43773979Y-38637979D01*
X44563928Y-41609928D02*
X45063000Y-42109000D01*
X44126991Y-41172991D02*
X44563928Y-41609928D01*
X43773979Y-40219389D02*
X44126991Y-40572401D01*
X44126991Y-40572401D02*
X44126991Y-41172991D01*
X43323968Y-40405789D02*
X43676980Y-40758801D01*
X41109000Y-37598000D02*
X42084000Y-37598000D01*
X44563928Y-43387928D02*
X45063000Y-43887000D01*
X43676980Y-42500980D02*
X44563928Y-43387928D01*
X43323968Y-38837968D02*
X43323968Y-40405789D01*
X42084000Y-37598000D02*
X43323968Y-38837968D01*
X43676980Y-40758801D02*
X43676980Y-42500980D01*
G04 #@! TA.AperFunction,Conductor*
G36*
X28753621Y-34056002D02*
G01*
X28800114Y-34109658D01*
X28811500Y-34162000D01*
X28811500Y-34577212D01*
X28821937Y-34679380D01*
X28876791Y-34844920D01*
X28968342Y-34993346D01*
X28968347Y-34993352D01*
X29091647Y-35116652D01*
X29091653Y-35116657D01*
X29091654Y-35116658D01*
X29122288Y-35135553D01*
X29169766Y-35188339D01*
X29181169Y-35258414D01*
X29152876Y-35323530D01*
X29122288Y-35350035D01*
X29091966Y-35368737D01*
X29091960Y-35368742D01*
X28968742Y-35491960D01*
X28968737Y-35491966D01*
X28877248Y-35640292D01*
X28822431Y-35805723D01*
X28822430Y-35805726D01*
X28812000Y-35907815D01*
X28812000Y-35941000D01*
X29719000Y-35941000D01*
X29787121Y-35961002D01*
X29833614Y-36014658D01*
X29845000Y-36067000D01*
X29845000Y-36323000D01*
X29824998Y-36391121D01*
X29771342Y-36437614D01*
X29719000Y-36449000D01*
X28812000Y-36449000D01*
X28812000Y-36482184D01*
X28822430Y-36584273D01*
X28822431Y-36584276D01*
X28877248Y-36749707D01*
X28968737Y-36898033D01*
X28968742Y-36898039D01*
X29091960Y-37021257D01*
X29091966Y-37021262D01*
X29122286Y-37039963D01*
X29169765Y-37092748D01*
X29181169Y-37162823D01*
X29152878Y-37227939D01*
X29122290Y-37254444D01*
X29091658Y-37273338D01*
X29091647Y-37273347D01*
X28968347Y-37396647D01*
X28968342Y-37396653D01*
X28876791Y-37545080D01*
X28821937Y-37710622D01*
X28811500Y-37812778D01*
X28811500Y-38387212D01*
X28821937Y-38489380D01*
X28876791Y-38654920D01*
X28968342Y-38803346D01*
X28968347Y-38803352D01*
X29091647Y-38926652D01*
X29091653Y-38926657D01*
X29091654Y-38926658D01*
X29240080Y-39018209D01*
X29313435Y-39042516D01*
X29337382Y-39059095D01*
X29362939Y-39073066D01*
X29367564Y-39079992D01*
X29371806Y-39082929D01*
X29384418Y-39101786D01*
X29387637Y-39107689D01*
X29394290Y-39123749D01*
X29402614Y-39136206D01*
X29469091Y-39235696D01*
X29469093Y-39235698D01*
X29536684Y-39303289D01*
X29570710Y-39365601D01*
X29571168Y-39367802D01*
X29589062Y-39457764D01*
X29606413Y-39544990D01*
X29674898Y-39710326D01*
X29774322Y-39859125D01*
X29900865Y-39985668D01*
X30049664Y-40085092D01*
X30215000Y-40153577D01*
X30390521Y-40188490D01*
X30390522Y-40188490D01*
X30569478Y-40188490D01*
X30569479Y-40188490D01*
X30745000Y-40153577D01*
X30813780Y-40125086D01*
X30884370Y-40117497D01*
X30947858Y-40149275D01*
X30984086Y-40210333D01*
X30988000Y-40241495D01*
X30988000Y-40716000D01*
X30967998Y-40784121D01*
X30914342Y-40830614D01*
X30862000Y-40842000D01*
X30734000Y-40842000D01*
X30734000Y-42524000D01*
X30713998Y-42592121D01*
X30660342Y-42638614D01*
X30608000Y-42650000D01*
X30480000Y-42650000D01*
X30480000Y-42778000D01*
X30459998Y-42846121D01*
X30406342Y-42892614D01*
X30354000Y-42904000D01*
X29172000Y-42904000D01*
X29172000Y-43750516D01*
X29171999Y-43750516D01*
X29180191Y-43830683D01*
X29167217Y-43900484D01*
X29118565Y-43952190D01*
X29054844Y-43969490D01*
X28407584Y-43969490D01*
X28339463Y-43949488D01*
X28318489Y-43932585D01*
X28022418Y-43636514D01*
X27988392Y-43574202D01*
X27991683Y-43508475D01*
X27995047Y-43498122D01*
X27995046Y-43498122D01*
X27995049Y-43498116D01*
X28028500Y-43286916D01*
X28028500Y-43073084D01*
X27995049Y-42861884D01*
X27928972Y-42658517D01*
X27831894Y-42467991D01*
X27706206Y-42294996D01*
X27706203Y-42294993D01*
X27706201Y-42294990D01*
X27555009Y-42143798D01*
X27555006Y-42143796D01*
X27555004Y-42143794D01*
X27382009Y-42018106D01*
X27382007Y-42018105D01*
X27380920Y-42017439D01*
X27380591Y-42017075D01*
X27378004Y-42015196D01*
X27378398Y-42014652D01*
X27333283Y-41964796D01*
X27321670Y-41894756D01*
X27349766Y-41829555D01*
X27378130Y-41804978D01*
X27378004Y-41804804D01*
X27380030Y-41803331D01*
X27380920Y-41802561D01*
X27381997Y-41801899D01*
X27382009Y-41801894D01*
X27555004Y-41676206D01*
X27681727Y-41549483D01*
X29172000Y-41549483D01*
X29172000Y-42396000D01*
X30226000Y-42396000D01*
X30226000Y-40842000D01*
X29879483Y-40842000D01*
X29775681Y-40852605D01*
X29775678Y-40852606D01*
X29607474Y-40908342D01*
X29456660Y-41001365D01*
X29456654Y-41001370D01*
X29331370Y-41126654D01*
X29331365Y-41126660D01*
X29238342Y-41277474D01*
X29182606Y-41445678D01*
X29182605Y-41445681D01*
X29172000Y-41549483D01*
X27681727Y-41549483D01*
X27706206Y-41525004D01*
X27831894Y-41352009D01*
X27928972Y-41161483D01*
X27995049Y-40958116D01*
X28028500Y-40746916D01*
X28028500Y-40533084D01*
X27995049Y-40321884D01*
X27928972Y-40118517D01*
X27831894Y-39927991D01*
X27706206Y-39754996D01*
X27706203Y-39754993D01*
X27706201Y-39754990D01*
X27555009Y-39603798D01*
X27555006Y-39603796D01*
X27555004Y-39603794D01*
X27382009Y-39478106D01*
X27382007Y-39478105D01*
X27380920Y-39477439D01*
X27380591Y-39477075D01*
X27378004Y-39475196D01*
X27378398Y-39474652D01*
X27333283Y-39424796D01*
X27321670Y-39354756D01*
X27349766Y-39289555D01*
X27378130Y-39264978D01*
X27378004Y-39264804D01*
X27380030Y-39263331D01*
X27380920Y-39262561D01*
X27381997Y-39261899D01*
X27382009Y-39261894D01*
X27555004Y-39136206D01*
X27706206Y-38985004D01*
X27831894Y-38812009D01*
X27928972Y-38621483D01*
X27995049Y-38418116D01*
X28028500Y-38206916D01*
X28028500Y-37993084D01*
X27995049Y-37781884D01*
X27928972Y-37578517D01*
X27831894Y-37387991D01*
X27706206Y-37214996D01*
X27706203Y-37214993D01*
X27706201Y-37214990D01*
X27555009Y-37063798D01*
X27555006Y-37063796D01*
X27555004Y-37063794D01*
X27472424Y-37003796D01*
X27382006Y-36938103D01*
X27380427Y-36937136D01*
X27379952Y-36936611D01*
X27378004Y-36935196D01*
X27378301Y-36934786D01*
X27332797Y-36884488D01*
X27321191Y-36814446D01*
X27349296Y-36749249D01*
X27377844Y-36724516D01*
X27377742Y-36724376D01*
X27379382Y-36723184D01*
X27380448Y-36722261D01*
X27381754Y-36721460D01*
X27554679Y-36595822D01*
X27705822Y-36444679D01*
X27831463Y-36271750D01*
X27928506Y-36081292D01*
X27928509Y-36081286D01*
X27994559Y-35878004D01*
X28004698Y-35814000D01*
X27100703Y-35814000D01*
X27135925Y-35752993D01*
X27170000Y-35625826D01*
X27170000Y-35494174D01*
X27135925Y-35367007D01*
X27100703Y-35306000D01*
X28004697Y-35306000D01*
X27994559Y-35241995D01*
X27928509Y-35038713D01*
X27928506Y-35038707D01*
X27831463Y-34848249D01*
X27705822Y-34675320D01*
X27554679Y-34524177D01*
X27381749Y-34398535D01*
X27380433Y-34397729D01*
X27380037Y-34397291D01*
X27377742Y-34395624D01*
X27378092Y-34395141D01*
X27357960Y-34372891D01*
X27334682Y-34348822D01*
X27334256Y-34346693D01*
X27332800Y-34345084D01*
X27327322Y-34312039D01*
X27320753Y-34279205D01*
X27321545Y-34277185D01*
X27321190Y-34275043D01*
X27334444Y-34244290D01*
X27346672Y-34213109D01*
X27348646Y-34211340D01*
X27349291Y-34209844D01*
X27372452Y-34188177D01*
X27379078Y-34183387D01*
X27382009Y-34181894D01*
X27549943Y-34059882D01*
X27583336Y-34048060D01*
X27616562Y-34036205D01*
X27616843Y-34036196D01*
X27616869Y-34036188D01*
X27616900Y-34036195D01*
X27623755Y-34036000D01*
X28685500Y-34036000D01*
X28753621Y-34056002D01*
G37*
G04 #@! TD.AperFunction*
G04 #@! TA.AperFunction,Conductor*
G36*
X30942735Y-34909091D02*
G01*
X30982218Y-34968097D01*
X30988000Y-35005827D01*
X30988000Y-35207750D01*
X30967998Y-35275871D01*
X30928148Y-35314990D01*
X30841653Y-35368341D01*
X30808741Y-35401254D01*
X30806601Y-35402422D01*
X30805353Y-35404519D01*
X30775593Y-35419354D01*
X30746429Y-35435280D01*
X30743996Y-35435106D01*
X30741814Y-35436194D01*
X30708780Y-35432587D01*
X30675614Y-35430215D01*
X30672906Y-35428670D01*
X30671237Y-35428488D01*
X30663444Y-35423271D01*
X30640424Y-35410138D01*
X30554636Y-35340773D01*
X30538822Y-35317917D01*
X30520233Y-35297250D01*
X30518913Y-35289141D01*
X30514241Y-35282388D01*
X30513294Y-35254610D01*
X30508830Y-35227175D01*
X30512102Y-35219642D01*
X30511823Y-35211433D01*
X30526046Y-35187550D01*
X30537122Y-35162059D01*
X30545605Y-35154708D01*
X30548151Y-35150434D01*
X30553772Y-35147631D01*
X30567710Y-35135554D01*
X30598346Y-35116658D01*
X30721658Y-34993346D01*
X30754760Y-34939678D01*
X30807545Y-34892202D01*
X30877620Y-34880799D01*
X30942735Y-34909091D01*
G37*
G04 #@! TD.AperFunction*
M02*
